<svg width="40" height="40" viewBox="0 0 40 40" fill="none" xmlns="http://www.w3.org/2000/svg">
<path fill-rule="evenodd" clip-rule="evenodd" d="M28 0C28.5523 0 29 0.447715 29 1V11L39 11C39.5523 11 40 11.4477 40 12V14C40 14.5523 39.5523 15 39 15L28.0013 15L28 15H26C25.4477 15 25 14.5523 25 14V12V1C25 0.447715 25.4477 0 26 0H28ZM1 11C0.447716 11 0 11.4477 0 12V14C0 14.5523 0.447716 15 1 15H12H14C14.5523 15 15 14.5523 15 14V12L15 11.9987L15 1C15 0.447715 14.5523 0 14 0H12C11.4477 0 11 0.447715 11 1L11 11H1ZM39 29C39.5523 29 40 28.5523 40 28V26C40 25.4477 39.5523 25 39 25L28.0008 25H28H26C25.4477 25 25 25.4477 25 26V28L25 28.0018L25 39C25 39.5523 25.4477 40 26 40H28C28.5523 40 29 39.5523 29 39L29 29L39 29ZM11 39C11 39.5523 11.4477 40 12 40H14C14.5523 40 15 39.5523 15 39L15 28.0016C15 28.0011 15 28.0005 15 28L15 26C15 25.4477 14.5523 25 14 25H12C11.9994 25 11.9988 25 11.9982 25L1 25C0.447716 25 0 25.4477 0 26V28C0 28.5523 0.447715 29 1 29L11 29L11 39Z" fill="#828282"/>
</svg>
