<?xml version="1.0" standalone="no"?>
<!DOCTYPE svg PUBLIC "-//W3C//DTD SVG 20010904//EN"
 "http://www.w3.org/TR/2001/REC-SVG-20010904/DTD/svg10.dtd">
<svg version="1.0" xmlns="http://www.w3.org/2000/svg"
 width="900.000000pt" height="900.000000pt" viewBox="0 0 900.000000 900.000000"
 preserveAspectRatio="xMidYMid meet">

<g transform="translate(0.000000,900.000000) scale(0.100000,-0.100000)"
fill="#000000" stroke="none">
<path d="M4210 8989 c-441 -32 -866 -122 -1254 -266 -1079 -399 -1950 -1175
-2473 -2203 -554 -1088 -632 -2389 -214 -3543 416 -1149 1291 -2090 2401
-2584 741 -330 1586 -458 2370 -357 700 89 1317 312 1890 682 1078 697 1816
1824 2010 3072 52 333 70 666 51 955 -31 473 -118 893 -268 1299 -186 502
-444 946 -791 1361 -109 129 -417 435 -552 547 -704 583 -1518 926 -2430 1023
-179 19 -573 27 -740 14z m730 -674 c524 -66 991 -215 1412 -451 322 -181 567
-364 831 -624 409 -400 699 -840 903 -1368 168 -435 254 -900 254 -1372 0
-466 -84 -926 -249 -1363 -349 -922 -1067 -1694 -1966 -2117 -828 -388 -1801
-466 -2675 -213 -659 190 -1215 523 -1695 1014 -444 454 -752 975 -934 1579
-214 709 -214 1491 0 2200 190 632 520 1176 995 1640 331 324 671 560 1079
748 410 189 821 297 1305 342 140 13 593 4 740 -15z"/>
<path d="M3480 7385 c-231 -56 -412 -244 -482 -501 -31 -115 -31 -325 0 -444
78 -294 298 -529 557 -595 75 -19 223 -19 295 0 215 57 386 232 459 468 46
150 48 321 5 492 -21 85 -105 249 -164 322 -169 209 -442 314 -670 258z"/>
<path d="M5665 7354 c-87 -21 -118 -31 -174 -56 -93 -41 -198 -124 -270 -213
-269 -335 -261 -836 19 -1115 126 -126 257 -181 430 -181 266 0 512 173 646
454 60 127 77 212 77 382 0 135 -3 159 -27 240 -89 294 -315 482 -591 491 -49
2 -99 1 -110 -2z"/>
<path d="M1910 6220 c-269 -36 -457 -203 -526 -470 -22 -83 -22 -242 0 -333
42 -176 120 -313 251 -442 246 -241 587 -312 855 -178 105 53 215 163 263 264
54 112 70 187 70 314 -1 127 -22 221 -77 340 -90 195 -274 373 -466 451 -115
47 -265 69 -370 54z"/>
<path d="M7005 5956 c-148 -41 -248 -99 -364 -210 -127 -123 -204 -252 -253
-422 -33 -117 -31 -289 5 -399 154 -469 713 -581 1127 -225 127 110 237 288
280 455 29 110 29 272 0 373 -63 223 -220 381 -436 436 -92 24 -259 20 -359
-8z"/>
<path d="M4405 5394 c-371 -54 -699 -221 -944 -481 -170 -178 -311 -426 -368
-644 l-26 -97 -61 -39 c-378 -242 -639 -662 -696 -1117 -17 -132 -7 -371 19
-498 43 -200 125 -392 242 -568 77 -116 270 -313 384 -392 380 -264 836 -350
1274 -242 103 26 251 78 325 116 l39 20 86 -40 c105 -49 247 -95 366 -118 137
-28 444 -25 583 4 313 68 567 206 793 431 225 226 361 474 431 789 30 133 33
471 5 602 -84 396 -294 728 -609 961 -43 32 -92 66 -108 75 -19 12 -30 28 -35
53 -14 72 -58 199 -106 300 -76 162 -167 289 -309 432 -180 181 -364 298 -594
376 -180 61 -260 74 -471 78 -104 2 -203 1 -220 -1z"/>
</g>
</svg>
