<?xml version="1.0" standalone="no"?>
<!DOCTYPE svg PUBLIC "-//W3C//DTD SVG 20010904//EN"
 "http://www.w3.org/TR/2001/REC-SVG-20010904/DTD/svg10.dtd">
<svg version="1.0" xmlns="http://www.w3.org/2000/svg"
 width="900.000000pt" height="900.000000pt" viewBox="0 0 900.000000 900.000000"
 preserveAspectRatio="xMidYMid meet">

<g transform="translate(0.000000,900.000000) scale(0.100000,-0.100000)"
fill="#000000" stroke="none">
<path d="M4285 8994 c-693 -52 -1189 -179 -1755 -450 -856 -410 -1616 -1159
-2045 -2014 -544 -1084 -631 -2332 -243 -3475 380 -1120 1188 -2047 2256
-2584 375 -189 871 -347 1289 -410 308 -47 425 -56 723 -55 295 1 460 14 740
60 1255 206 2381 961 3066 2054 713 1139 876 2544 443 3824 -352 1041 -1076
1918 -2039 2468 -537 307 -1127 494 -1770 563 -139 15 -561 27 -665 19z m705
-428 c162 -23 431 -73 520 -97 604 -165 1085 -406 1550 -775 174 -138 496
-460 634 -634 486 -612 768 -1286 873 -2085 28 -217 26 -760 -4 -981 -107
-783 -391 -1453 -869 -2054 -139 -174 -461 -496 -634 -634 -651 -517 -1410
-818 -2237 -887 -202 -17 -645 -6 -833 19 -906 124 -1693 500 -2326 1114 -697
677 -1096 1477 -1231 2468 -28 211 -26 766 4 985 32 229 74 434 132 635 424
1471 1662 2600 3161 2880 85 15 216 35 290 44 74 9 151 18 170 20 90 11 690
-3 800 -18z"/>
<path d="M5210 6554 c-36 -7 -85 -21 -110 -30 -448 -167 -714 -613 -661 -1108
7 -60 10 -110 7 -113 -2 -3 -64 3 -138 11 -501 61 -950 249 -1368 572 -129
100 -387 352 -470 461 -30 40 -59 72 -63 73 -17 0 -80 -157 -104 -264 -47
-200 -34 -440 34 -629 59 -167 147 -301 283 -431 45 -43 79 -80 77 -83 -20
-19 -289 54 -376 103 -24 13 -46 24 -50 24 -13 0 9 -199 33 -293 29 -113 94
-254 159 -347 131 -185 349 -343 539 -390 26 -7 46 -16 43 -20 -15 -25 -274
-43 -379 -26 l-49 8 7 -29 c13 -49 84 -192 132 -265 60 -89 180 -212 263 -268
132 -88 305 -154 444 -167 37 -3 67 -9 67 -12 0 -4 -30 -30 -67 -58 -199 -151
-440 -266 -681 -328 -189 -47 -284 -59 -493 -59 l-197 0 59 -37 c335 -217 778
-372 1174 -410 156 -15 565 -6 700 15 585 94 1088 347 1495 756 567 568 900
1389 900 2220 l0 106 51 39 c74 57 246 228 310 310 64 82 122 165 115 165 -3
0 -29 -9 -58 -21 -140 -56 -411 -124 -466 -117 -22 3 -19 7 31 41 63 44 187
170 234 238 38 55 119 214 128 252 7 26 6 26 -97 -28 -141 -73 -302 -133 -456
-169 l-63 -14 -37 40 c-123 134 -348 254 -536 287 -83 15 -288 12 -366 -5z"/>
</g>
</svg>
