<svg width="36" height="36" viewBox="0 0 36 36" fill="none" xmlns="http://www.w3.org/2000/svg">
<circle cx="18" cy="18" r="18" fill="#4F4F4F"/>
<path d="M30 18C30 20.3869 28.7448 22.6153 26.5827 24.2784C24.4195 25.9424 21.3884 27 18 27C14.6116 27 11.5805 25.9424 9.41732 24.2784C7.25522 22.6153 6 20.3869 6 18C6 15.6131 7.25522 13.3847 9.41732 11.7216C11.5805 10.0576 14.6116 9 18 9C21.3884 9 24.4195 10.0576 26.5827 11.7216C28.7448 13.3847 30 15.6131 30 18Z" fill="white" stroke="#4F4F4F" stroke-width="2"/>
<path d="M28 20.5C28 22.1431 27.0238 23.7437 25.2148 24.9771C23.4109 26.207 20.8631 27 18 27C15.1369 27 12.5891 26.207 10.7852 24.9771C8.97616 23.7437 8 22.1431 8 20.5C8 18.8569 8.97616 17.2563 10.7852 16.0229C12.5891 14.793 15.1369 14 18 14C20.8631 14 23.4109 14.793 25.2148 16.0229C27.0238 17.2563 28 18.8569 28 20.5Z" fill="white" stroke="#4F4F4F" stroke-width="2"/>
<path d="M25 23C25 23.9115 24.4061 24.888 23.1269 25.6875C21.8617 26.4782 20.0517 27 18 27C15.9483 27 14.1383 26.4782 12.8731 25.6875C11.5939 24.888 11 23.9115 11 23C11 22.0885 11.5939 21.112 12.8731 20.3125C14.1383 19.5218 15.9483 19 18 19C20.0517 19 21.8617 19.5218 23.1269 20.3125C24.4061 21.112 25 22.0885 25 23Z" fill="white" stroke="#4F4F4F" stroke-width="2"/>
</svg>
