<svg width="50" height="50" viewBox="0 0 50 50" fill="none" xmlns="http://www.w3.org/2000/svg">
<path d="M25 0C11.1667 0 0 11.1667 0 25C0 38.8333 11.1667 50 25 50C38.8333 50 50 38.8333 50 25C50 11.1667 38.8333 0 25 0Z" fill="#74BFC1"/>
<path d="M25 0C38.8333 0 50 11.1667 50 25C50 38.8333 38.8333 50 25 50V0Z" fill="#5AA3A9"/>
<path d="M11.9999 20.1666C12.3332 20.5 12.6666 20.5 12.8332 20C12.9999 19.5 13.3332 19.1666 13.4999 18.6666C13.8332 18.1666 13.9999 17.8333 14.3332 17.5C14.6666 17.1666 14.4999 16.6666 13.9999 16.6666L9.49991 15.6666C8.66658 15.5 8.33325 16 8.99991 16.5L11.9999 20.1666Z" fill="white"/>
<path d="M11.8333 26.4999C11.8333 25.9999 11.8333 25.4999 11.8333 24.9999C11.8333 24.4999 11.8333 23.9999 12 23.4999C12 22.9999 11.6666 22.8332 11.3333 22.9999L6.66663 24.4999C5.83329 24.8332 5.83329 25.1666 6.66663 25.4999L11.1666 26.9999C11.5 27.1666 11.8333 26.9999 11.8333 26.4999Z" fill="white"/>
<path d="M16.1666 14.4999C16.1666 14.9999 16.6666 15.1666 16.9999 14.8333C17.3332 14.4999 17.8332 14.3333 18.3332 13.9999C18.8332 13.8333 19.1666 13.4999 19.6666 13.3333C19.9999 13.1666 19.9999 12.8333 19.6666 12.4999L16.1666 9.49994C15.4999 8.83328 15.1666 9.16661 15.3332 9.99994L16.1666 14.4999Z" fill="white"/>
<path d="M13.4999 31.3333C13.3333 30.8333 12.9999 30.4999 12.8333 29.9999C12.6666 29.6666 12.3333 29.4999 11.9999 29.8333L8.83325 33.3333C8.33325 33.9999 8.49992 34.3333 9.33325 34.1666L13.9999 33.3333C14.4999 33.3333 14.6666 32.8333 14.3333 32.4999C13.9999 32.3333 13.6666 31.8333 13.4999 31.3333Z" fill="white"/>
<path d="M19.3332 36.8333C18.8332 36.6666 18.4999 36.3333 17.9999 36.1667C17.4999 35.8333 17.1665 35.6667 16.8332 35.3333C16.4999 35 16.1665 35.1666 15.9999 35.6666L14.9999 40.1666C14.8332 41 15.1665 41.1666 15.8332 40.6666L19.3332 37.6666C19.8332 37.3333 19.8332 37 19.3332 36.8333Z" fill="white"/>
<path d="M43.5 19.3333C43.1666 19.1666 43.3333 18.8333 43.5 18.6666L44.3333 18.3333C44.5 18.3333 44.6666 17.9999 44.5 17.8333L44.1666 17.1666C44.1666 16.9999 43.8333 16.8333 43.6666 16.9999L42.8333 17.3333C42.5 17.4999 42.3333 17.3333 42.3333 16.9999L42.6666 15.4999C42.6666 15.3333 42.5 15.1666 42.3333 15.1666L41.8333 14.9999C41.6666 14.9999 41.5 15.1666 41.5 15.3333L41 18.1666C41 18.3333 40.8333 18.3333 40.8333 18.4999L38.8333 19.3333C38.5 19.4999 38.3333 19.3333 38.3333 18.9999L38.6666 16.8333C38.6666 16.6666 38.5 16.4999 38.3333 16.4999L37.6666 16.3333C37.5 16.3333 37.3333 16.4999 37.3333 16.6666L36.5 19.9999C36.5 20.1666 36.3333 20.1666 36.3333 20.3333L34 21.3333L28.3333 20.5C28.1666 20.5 28.1666 20.3333 28 20.3333L25.8333 15.8333L25.5 14.6666V13.1666C25.5 12.9999 25.5 12.9999 25.6666 12.8333L28.8333 10.9999C29 10.8333 29 10.6666 29 10.4999L28.6666 9.83328C28.5 9.66662 28.3333 9.66662 28.1666 9.66662L26.1666 10.8333C25.8333 10.9999 25.6666 10.8333 25.6666 10.4999V7.99995C25.6666 7.83328 25.6666 7.83328 25.8333 7.66662L27.8333 6.66662C28 6.49995 28 6.33328 28 6.16662L27.6666 5.49995C27.5 5.33328 27.3333 5.33328 27.1666 5.33328L26 5.99995C25.6666 6.16662 25.5 5.99995 25.5 5.66662V4.33328H23.3333V8.49995V8.66662L22 12.3333C21.8333 12.6666 22 12.8333 22.3333 12.8333C22.5 12.8333 22.6666 12.8333 23 12.8333C23.1666 12.8333 23.3333 12.9999 23.3333 13.1666V14.9999C23.3333 15.1666 23.1666 15.3333 23 15.3333C17.6666 15.8333 14.1666 19.9999 14.1666 24.9999C14.1666 30.1666 17.6666 34.4999 23.1666 34.8333C23.3333 34.8333 23.5 34.9999 23.5 35.1666V37C23.5 37.1666 23.3333 37.3333 23.1666 37.3333C22.8333 37.3333 22.5 37.3333 22.3333 37.3333C22 37.3333 21.8333 37.5 22 37.8333L23.5 42.1666C23.5 42.1666 23.5 42.1666 23.5 42.3333V45.1666C23.5 45.3333 23.6666 45.4999 23.8333 45.4999H24.6666C24.8333 45.4999 25 45.3333 25 45.1666V44.1666C25 43.8333 25.1666 43.6666 25.5 43.8333L25.8333 43.9999C26 44.1666 26.1666 43.9999 26.3333 43.8333L26.6666 43.1666C26.8333 42.9999 26.6666 42.8333 26.5 42.6666L25 41.6666C24.8333 41.6666 24.8333 41.4999 24.8333 41.3333V39.1666C24.8333 38.8333 25 38.6666 25.3333 38.8333L26.3333 39.5C26.5 39.6666 26.6666 39.4999 26.8333 39.3333L27.1666 38.6666C27.3333 38.5 27.1666 38.3333 27 38.1666L24.8333 36.8333C24.6666 36.8333 24.6666 36.6666 24.6666 36.4999V30.6666C24.6666 30.3333 24.8333 30.1666 25.1666 30.3333L29.5 32.6666C29.5 32.6666 29.6666 32.6666 29.6666 32.8333L30.1666 33.4999L31.3333 35.1666C31.3333 35.3333 31.3333 35.3333 31.3333 35.4999L29.8333 38.6666C29.8333 38.8333 29.8333 38.9999 30 39.1666L30.6666 39.5C30.8333 39.6666 31 39.4999 31.1666 39.3333L32.1666 37.1666C32.3333 36.8333 32.5 36.8333 32.8333 37.1666L34.1666 39.1666C34.1666 39.3333 34.1666 39.3333 34.1666 39.5L33.3333 42.3333C33.3333 42.4999 33.3333 42.6666 33.5 42.8333L34.1666 43.1666C34.3333 43.1666 34.5 43.1666 34.6666 42.9999L35.1666 41.8333C35.3333 41.4999 35.5 41.4999 35.8333 41.8333L36.3333 42.6666C36.5 42.8333 36.6666 42.8333 36.8333 42.8333L37.5 42.3333C37.6666 42.1666 37.6666 41.9999 37.6666 41.8333L37.1666 40.9999C37 40.6666 37.1666 40.4999 37.5 40.4999H39C39.1666 40.4999 39.3333 40.3333 39.3333 40.1666V39.3333C39.3333 39.1666 39.1666 38.9999 39 38.9999L36.1666 39.1666C36 39.1666 36 39.1666 35.8333 38.9999L34.6666 37.1666C34.5 36.8333 34.6666 36.6666 35 36.6666H37.1666C37.3333 36.6666 37.5 36.4999 37.5 36.3333V35.6666C37.5 35.4999 37.3333 35.3333 37.1666 35.3333L33.5 35.4999C33.3333 35.4999 33.3333 35.4999 33.1666 35.3333L31.6666 33.3333C31.6666 33.3333 31.6666 33.3333 31.6666 33.1666L31.5 32.6666L30.6666 27.4999C30.6666 27.3333 30.6666 27.3333 30.8333 27.1666L35.1666 22.8333L37.1666 21.9999C37.3333 21.9999 37.5 21.9999 37.5 21.9999L40.3333 24.1666C40.5 24.3333 40.6666 24.3333 40.8333 24.1666L41.3333 23.4999C41.5 23.3333 41.5 23.1666 41.3333 23L39.5 21.4999C39.1666 21.3333 39.3333 20.9999 39.5 20.8333L41.6666 19.8333C41.8333 19.8333 42 19.8333 42 19.8333L44 21.3333C44.1666 21.5 44.3333 21.5 44.5 21.3333L45 20.6666C45.1666 20.4999 45.1666 20.3333 45 20.1666L43.5 19.3333ZM30.6666 23.4999L28.8333 25.3333C28.3333 25.8333 28.1666 26.4999 28.1666 27.1666L28.6666 29.6666C28.6666 29.9999 28.5 30.1666 28.1666 29.9999L25 28.3333V19.9999C25 19.1666 25.3333 19.1666 25.6666 19.8333L26.5 21.4999C26.8333 22.1666 27.3333 22.4999 28 22.6666L30.5 23C30.8333 23 31 23.3333 30.6666 23.4999Z" fill="white"/>
</svg>
