<svg width="50" height="50" viewBox="0 0 50 50" fill="none" xmlns="http://www.w3.org/2000/svg">
<path d="M25 50C38.8333 50 50 38.8333 50 25C50 11.1667 38.8333 0 25 0C11.1667 0 0 11.1667 0 25C0 38.8333 11.1667 50 25 50Z" fill="#7CB58A"/>
<path d="M25 0C38.8333 0 50 11.1667 50 25C50 38.8333 38.8333 50 25 50V0Z" fill="#2B8043"/>
<path d="M8.5 38.8333C8.5 29.5 16 22 25.1667 22C34.3333 22 41.8333 29.5 41.8333 38.6667M21.5 38.8333C21.5 36.6667 23.1667 35 25.1667 35C27.1667 35 28.8333 36.6667 28.8333 38.6667L21.5 38.8333ZM17.1667 38.8333C17.1667 34.3333 20.8333 30.6667 25.1667 30.6667C29.6667 30.6667 33.1667 34.3334 33.1667 38.6667L17.1667 38.8333ZM12.8333 38.8333C12.8333 32 18.3333 26.3333 25.1667 26.3333C32 26.3333 37.5 31.8334 37.5 38.6667L12.8333 38.8333Z" stroke="white" stroke-width="1.283" stroke-miterlimit="22.926" stroke-linecap="round" stroke-linejoin="round"/>
<path d="M17.5001 23.6667C15.1667 22.5 13.6667 20.1667 13.6667 17.5C13.6667 13.6667 16.6667 10.6667 20.5001 10.6667C24.3334 10.6667 27.3334 13.6667 27.3334 17.5C27.3334 19.1667 26.6667 20.6667 25.8334 21.8334" stroke="white" stroke-width="1.283" stroke-miterlimit="22.926"/>
</svg>
