<svg width="50" height="50" viewBox="0 0 50 50" fill="none" xmlns="http://www.w3.org/2000/svg">
<path d="M25 0C11.1667 0 0 11.1667 0 25C0 38.8333 11.1667 50 25 50C38.8333 50 50 38.8333 50 25C50 11.1667 38.8333 0 25 0Z" fill="#5C82BF"/>
<path d="M25 50C38.8333 50 50 38.8333 50 25C50 11.1667 38.8333 0 25 0V50Z" fill="#385EA6"/>
<path d="M34.5001 24H38.3334V23H34.5001V24ZM34.5001 27.8334H38.3334V26.8334H34.5001V27.8334ZM34.5001 13.5H38.3334V12.5H34.5001V13.5ZM34.5001 9.66668H38.3334V8.83335H34.5001V9.66668ZM34.5001 20.6667H38.3334V19.6667H34.5001V20.6667ZM34.5001 31.1667H38.3334V30.1667H34.5001V31.1667ZM34.5001 16.8334H38.3334V15.8333H34.5001V16.8334ZM28.8334 43.8333C26.1667 43.8333 24.0001 41.6667 24.0001 39C24.0001 37.5 24.6667 36.1667 25.6667 35.3333L26.0001 35.1667V9.00002C26.0001 7.50002 27.3334 6.16668 28.8334 6.16668C30.3334 6.16668 31.6667 7.33335 31.6667 9.00002V35L32.0001 35.1667C33.1667 36.1667 33.6667 37.5 33.6667 38.8333C33.6667 41.6667 31.5001 43.8333 28.8334 43.8333ZM22.1667 28.1667V24.5L24.5001 25.6667V30.5L22.1667 28.1667ZM24.5001 22.3333V23.6667L23.3334 23L24.5001 22.3333ZM22.1667 17.8333L24.5001 15.6667V20.5L22.1667 21.6667V17.8333ZM33.1667 34.3333V9.00002C33.1667 6.50002 31.3334 4.50002 28.8334 4.50002C26.3334 4.50002 24.5001 6.50002 24.5001 9.00002V13.5C24.0001 13.5 24.0001 13.6667 23.8334 13.6667L22.0001 15.3333V13.6667C22.0001 13.1667 21.6667 12.8333 21.3334 12.8333C21.0001 12.8333 20.6667 13.1667 20.6667 13.6667V15.3333L19.0001 13.6667C18.8334 13.3333 18.3334 13.3333 18.0001 13.6667C17.6667 14 17.6667 14.5 18.0001 14.8333L20.8334 17.8333V21.5L17.6667 19.6667L16.3334 15.6667C16.1667 15.3333 15.6667 15 15.3334 15.1667C14.8334 15.3334 14.6667 15.8333 14.6667 16.1667L15.3334 18.3333L13.8334 17.5C13.5001 17.3333 13.0001 17.3333 12.6667 17.8333C12.5001 18.1667 12.5001 18.6667 13.0001 19L14.5001 19.8333L12.1667 20.3333C11.8334 20.5 11.6667 21 11.6667 21.3333C11.8334 21.6667 12.1667 22 12.5001 22H12.6667L16.6667 21.1667L19.8334 23L16.6667 24.8333L12.6667 24C12.1667 23.8333 11.8334 24.1667 11.6667 24.6667C11.6667 25 11.8334 25.5 12.3334 25.5L14.6667 26L13.1667 26.8334C12.8334 27 12.6667 27.5 12.8334 28C13.0001 28.3333 13.3334 28.3333 13.5001 28.3333C13.6667 28.3333 13.8334 28.3333 13.8334 28.1667L15.3334 27.3333L14.6667 29.5C14.5001 30 14.8334 30.3333 15.1667 30.5H15.3334C15.6667 30.5 16.0001 30.3333 16.1667 30L17.5001 26L20.6667 24.1667V27.8334L17.8334 30.8333C17.5001 31.1667 17.5001 31.6667 17.8334 32C18.0001 32.1667 18.1667 32.1667 18.3334 32.1667C18.5001 32.1667 18.8334 32 19.0001 31.8333L20.6667 30.1667V31.8333C20.6667 32.3333 21.0001 32.6667 21.3334 32.6667C21.6667 32.6667 22.0001 32.3333 22.0001 31.8333V30.1667L23.8334 31.8333C24.0001 32 24.0001 32 24.5001 32V33.6667C23.0001 34.8333 22.3334 36.6667 22.3334 38.5C22.3334 42.1667 25.1667 45 28.8334 45C32.3334 45 35.1667 42.1667 35.1667 38.5C35.3334 37.1667 34.5001 35.5 33.1667 34.3333ZM30.8334 36.5L29.8334 35.8333V27.3333H28.0001V35.8333L27.0001 36.5C26.3334 37.1667 25.8334 38 25.8334 39C25.8334 40.8333 27.1667 42.1667 29.0001 42.1667C30.8334 42.1667 32.1667 40.6667 32.1667 39C32.0001 38 31.5001 37.1667 30.8334 36.5Z" fill="white"/>
</svg>
