<svg width="36" height="36" viewBox="0 0 36 36" fill="none" xmlns="http://www.w3.org/2000/svg">
<circle cx="18" cy="18" r="18" fill="#F2994A"/>
<path d="M9.56495 17.3662L8.17606 22.3662C8.08756 22.6848 8.32716 23 8.65782 23H17.3422C17.6728 23 17.9124 22.6848 17.8239 22.3662L16.435 17.3662C16.3749 17.1498 16.1779 17 15.9533 17H10.0467C9.82211 17 9.62506 17.1498 9.56495 17.3662Z" fill="white"/>
<path d="M14.565 10.3662L13.1761 15.3662C13.0876 15.6848 13.3272 16 13.6578 16H22.3422C22.6728 16 22.9124 15.6848 22.8239 15.3662L21.435 10.3662C21.3749 10.1498 21.1779 10 20.9533 10H15.0467C14.8221 10 14.6251 10.1498 14.565 10.3662Z" fill="white"/>
<path d="M19.565 17.3662L18.1761 22.3662C18.0876 22.6848 18.3272 23 18.6578 23H27.3422C27.6728 23 27.9124 22.6848 27.8239 22.3662L26.435 17.3662C26.3749 17.1498 26.1779 17 25.9533 17H20.0467C19.8221 17 19.6251 17.1498 19.565 17.3662Z" fill="white"/>
</svg>
