<?xml version="1.0" standalone="no"?>
<!DOCTYPE svg PUBLIC "-//W3C//DTD SVG 20010904//EN"
 "http://www.w3.org/TR/2001/REC-SVG-20010904/DTD/svg10.dtd">
<svg version="1.0" xmlns="http://www.w3.org/2000/svg"
 width="900.000000pt" height="902.000000pt" viewBox="0 0 900.000000 902.000000"
 preserveAspectRatio="xMidYMid meet">

<g transform="translate(0.000000,902.000000) scale(0.100000,-0.100000)"
fill="#000000" stroke="none">
<path d="M4084 9000 c-1141 -111 -2207 -657 -2963 -1515 -384 -435 -629 -849
-849 -1430 -126 -333 -209 -681 -254 -1060 -17 -148 -17 -810 0 -960 54 -462
162 -861 352 -1305 230 -535 504 -943 913 -1358 369 -375 747 -652 1206 -882
973 -488 2063 -607 3108 -339 1266 324 2335 1183 2917 2346 321 642 480 1310
480 2018 0 687 -142 1317 -436 1925 -105 219 -172 339 -286 515 -487 751
-1171 1329 -1997 1690 -405 176 -910 309 -1310 345 -161 14 -767 21 -881 10z
m636 -410 c195 -12 468 -48 635 -85 660 -148 1281 -451 1740 -849 716 -623
1150 -1311 1363 -2161 83 -331 112 -582 112 -970 0 -465 -39 -745 -160 -1165
-141 -489 -441 -1057 -750 -1420 -172 -202 -548 -565 -715 -691 -506 -380
-1139 -653 -1760 -759 -221 -37 -394 -50 -695 -50 -447 0 -668 28 -1065 135
-802 217 -1480 655 -2071 1340 -440 510 -762 1206 -878 1902 -44 260 -57 429
-57 698 0 427 54 798 176 1200 145 478 416 986 722 1355 115 139 490 514 626
626 525 432 1226 743 1910 848 336 52 560 63 867 46z"/>
<path d="M3960 6399 c0 -60 131 -475 200 -634 45 -103 55 -88 -88 -136 -598
-197 -959 -367 -1429 -670 -67 -44 -125 -79 -130 -79 -4 0 -46 35 -93 78 -229
207 -557 396 -985 565 -209 82 -272 103 -281 94 -14 -13 150 -385 237 -540
109 -193 180 -287 341 -452 l107 -110 -83 -91 c-180 -197 -330 -422 -476 -714
-56 -112 -130 -283 -130 -302 0 -27 404 138 700 287 248 125 386 213 540 347
47 40 93 79 102 86 15 12 37 1 178 -92 363 -240 687 -404 1087 -552 73 -27
133 -54 133 -60 0 -6 -20 -56 -44 -111 -71 -159 -177 -487 -179 -552 -2 -70
-10 -70 188 16 281 123 539 263 737 399 l106 73 159 -15 c240 -22 554 -20 748
5 149 20 246 36 287 47 16 5 16 8 -3 47 -12 23 -45 76 -74 118 -288 420 -389
937 -284 1454 46 228 176 524 309 705 38 52 74 102 80 111 19 33 -257 71 -634
89 l-200 9 -45 32 c-196 140 -341 230 -571 351 -149 79 -437 209 -476 215 -31
5 -34 3 -34 -18z"/>
<path d="M6139 5623 c-69 -62 -196 -241 -253 -358 -64 -129 -139 -348 -156
-456 -18 -113 -8 -589 15 -689 22 -96 75 -241 132 -355 86 -172 242 -389 287
-401 69 -17 496 185 726 345 334 231 664 580 715 754 19 66 11 94 -51 195
-197 315 -560 629 -969 837 -107 55 -372 165 -396 165 -5 0 -27 -17 -50 -37z
m456 -742 c75 -35 115 -96 115 -174 -1 -117 -118 -223 -223 -203 -51 10 -128
65 -155 111 -47 82 -6 222 78 266 45 25 132 25 185 0z"/>
</g>
</svg>
