<svg width="36" height="36" viewBox="0 0 36 36" fill="none" xmlns="http://www.w3.org/2000/svg">
<circle cx="18" cy="18" r="18" fill="#2F80ED"/>
<path d="M11.3465 22L24.6535 22C24.8619 22 25.0485 21.8707 25.1217 21.6756L27.7467 14.6756C27.8692 14.3487 27.6276 14 27.2785 14L8.7215 14C8.3724 14 8.13076 14.3487 8.25334 14.6756L10.8783 21.6756C10.9515 21.8707 11.1381 22 11.3465 22Z" fill="white"/>
<circle cx="13.5" cy="24.5" r="1.5" fill="white"/>
<circle cx="22.5" cy="24.5" r="1.5" fill="white"/>
<path d="M10.8618 11.2764L10.3618 12.2764C10.1956 12.6088 10.4373 13 10.809 13H25.191C25.5627 13 25.8044 12.6088 25.6382 12.2764L25.1382 11.2764C25.0535 11.107 24.8804 11 24.691 11H24.2071C24.0745 11 23.9473 10.9473 23.8536 10.8536L23.1464 10.1464C23.0527 10.0527 22.9255 10 22.7929 10H22.2071C22.0745 10 21.9473 9.94732 21.8536 9.85355L20.1464 8.14645C20.0527 8.05268 19.9255 8 19.7929 8H17.2071C17.0745 8 16.9473 8.05268 16.8536 8.14645L15.1464 9.85355C15.0527 9.94732 14.9255 10 14.7929 10H13.2071C13.0745 10 12.9473 10.0527 12.8536 10.1464L12.1464 10.8536C12.0527 10.9473 11.9255 11 11.7929 11H11.309C11.1196 11 10.9465 11.107 10.8618 11.2764Z" fill="white"/>
</svg>
