<?xml version="1.0" standalone="no"?>
<!DOCTYPE svg PUBLIC "-//W3C//DTD SVG 20010904//EN"
 "http://www.w3.org/TR/2001/REC-SVG-20010904/DTD/svg10.dtd">
<svg version="1.0" xmlns="http://www.w3.org/2000/svg"
 width="690.000000pt" height="691.000000pt" viewBox="0 0 690.000000 691.000000"
 preserveAspectRatio="xMidYMid meet">

<g transform="translate(0.000000,691.000000) scale(0.100000,-0.100000)"
fill="#000000" stroke="none">
<path d="M3240 6889 c-520 -57 -995 -341 -1293 -774 -34 -49 -102 -169 -152
-265 l-90 -175 -60 -8 c-522 -68 -940 -304 -1248 -704 -167 -217 -299 -517
-359 -813 -20 -101 -23 -144 -23 -355 0 -273 14 -370 84 -584 96 -290 225
-497 475 -758 l118 -123 -23 -152 c-27 -184 -30 -427 -5 -583 135 -873 881
-1547 1751 -1582 327 -13 577 46 910 214 l170 85 134 -67 c157 -78 252 -116
376 -150 413 -112 825 -73 1225 117 387 183 694 489 885 881 175 358 222 720
151 1172 l-23 150 111 115 c172 178 260 303 357 504 118 248 167 453 176 738
5 147 2 212 -12 310 -91 650 -474 1189 -1032 1455 -116 55 -301 116 -423 138
-52 9 -103 21 -112 26 -10 5 -31 9 -46 9 -16 0 -50 3 -76 6 l-47 7 -65 129
c-120 235 -230 385 -407 555 -253 241 -583 406 -937 467 -115 20 -373 28 -490
15z m442 -590 c237 -47 443 -156 609 -322 127 -127 194 -229 338 -521 l129
-261 184 -23 c504 -64 665 -115 886 -282 318 -239 504 -619 503 -1025 0 -221
-40 -394 -132 -577 -84 -168 -149 -250 -407 -512 l-166 -168 48 -286 c69 -411
71 -552 11 -786 -156 -619 -769 -1025 -1386 -920 -153 26 -258 68 -545 214
l-271 138 -74 -45 c-130 -80 -491 -260 -574 -287 -341 -110 -696 -74 -990 102
-372 222 -597 602 -621 1052 -6 108 20 358 66 631 l20 116 -229 229 c-245 246
-320 343 -395 507 -223 491 -119 1074 259 1452 214 214 412 304 826 375 129
22 257 45 284 51 l50 10 34 77 c117 260 254 523 314 602 290 382 753 555 1229
459z"/>
<path d="M3450 4651 c-90 -29 -156 -86 -191 -166 -45 -99 -26 -217 138 -870
47 -187 87 -348 89 -358 3 -20 204 -414 332 -652 118 -222 207 -367 249 -407
140 -135 361 -98 450 76 49 96 38 220 -28 299 -56 68 -307 245 -749 528 l-225
144 180 12 c568 38 922 78 1005 114 99 43 159 139 160 254 0 162 -119 285
-276 285 -79 0 -120 -15 -246 -91 -105 -64 -538 -351 -730 -485 -59 -41 -106
-69 -103 -62 61 184 219 722 261 891 56 222 47 316 -39 405 -66 69 -199 109
-277 83z"/>
<path d="M2325 3887 c-107 -51 -165 -143 -165 -263 0 -116 60 -209 167 -256
76 -33 449 -77 938 -109 99 -7 183 -15 187 -18 3 -3 -69 -60 -160 -125 -241
-173 -532 -392 -643 -484 -78 -64 -102 -92 -125 -138 -55 -113 -30 -249 61
-333 60 -55 107 -74 190 -75 58 -1 80 4 127 27 31 15 71 44 89 65 53 60 227
430 433 920 31 74 56 138 56 143 0 26 -759 562 -900 635 -78 41 -183 45 -255
11z"/>
</g>
</svg>
