<svg id="Layer_1" data-name="Layer 1" xmlns="http://www.w3.org/2000/svg" viewBox="0 0 58.28 54.89"><defs><style>.cls-1{fill:#e77517;}.cls-2{fill:#fff;}.cls-3{fill:none;stroke:#fff;stroke-miterlimit:10;stroke-width:2px;}</style></defs><title>icons</title><circle class="cls-1" cx="29.14" cy="27.44" r="24.76"/><path class="cls-2" d="M29.14,54a26.51,26.51,0,1,1,26.5-26.51A26.54,26.54,0,0,1,29.14,54Zm0-49.51a23,23,0,1,0,23,23A23,23,0,0,0,29.14,4.44Z"/><polygon class="cls-3" points="42.41 40.81 15.77 40.81 15.77 14.08 22.26 14.08 22.26 20.18 29.09 24.73 29.09 20.76 35.73 24.83 35.73 20.76 42.41 24.73 42.41 40.81"/><rect class="cls-2" x="35.89" y="28.76" width="2.36" height="2.36" transform="translate(74.13 59.88) rotate(-180)"/><rect class="cls-2" x="30.57" y="28.76" width="2.36" height="2.36" transform="translate(63.5 59.88) rotate(-180)"/><rect class="cls-2" x="25.25" y="28.76" width="2.36" height="2.36" transform="translate(52.86 59.88) rotate(-180)"/><rect class="cls-2" x="19.93" y="28.76" width="2.36" height="2.36" transform="translate(42.22 59.88) rotate(-180)"/><rect class="cls-2" x="35.89" y="34.1" width="2.36" height="2.36" transform="translate(74.13 70.55) rotate(-180)"/><rect class="cls-2" x="30.57" y="34.1" width="2.36" height="2.36" transform="translate(63.5 70.55) rotate(-180)"/><rect class="cls-2" x="25.25" y="34.1" width="2.36" height="2.36" transform="translate(52.86 70.55) rotate(-180)"/><rect class="cls-2" x="19.93" y="34.1" width="2.36" height="2.36" transform="translate(42.22 70.55) rotate(-180)"/></svg>