<svg width="50" height="50" viewBox="0 0 50 50" fill="none" 
    xmlns="http://www.w3.org/2000/svg">
    <path d="M25 0C11.1667 0 0 11.1667 0 25C0 38.8333 11.1667 50 25 50C38.8333 50 50 38.8333 50 25C50 11.1667 38.8333 0 25 0Z" fill="#C85239"/>
    <path d="M25 0V50C38.8333 50 50 38.8333 50 25C50 11.1667 38.8333 0 25 0Z" fill="#B43C1E"/>
    <path d="M34.5 12.8333C33.8334 12.8333 33.1667 13 32.5 13.1667C31.3334 9.66668 28 7.00002 24 7.00002C19.1667 7.00002 15.3334 10.8333 15 15.6667C14.6667 15.6667 14.3334 15.6667 14.1667 15.6667C10.5 15.6667 7.33337 18.6667 7.33337 22.5C7.33337 26.3333 10.3334 29.3333 14.1667 29.3333H34.5C39 29.3333 42.6667 25.6667 42.6667 21C42.6667 16.5 39 12.8333 34.5 12.8333Z" fill="white"/>
    <path d="M22.0001 38.3333L19.1667 37.1666L21.3334 35C21.5001 34.8333 21.5001 34.5 21.3334 34.3333L20.5001 33.3333C20.3334 33.1666 20.0001 33.1666 19.8334 33.3333L17.8334 35.1666L17.3334 32.5C17.3334 32.1666 17.0001 32 16.8334 32.1666L15.5001 32.5C15.1667 32.5 15.0001 32.8333 15.1667 33L15.6667 35.6666L13.0001 34.6666C12.8334 34.5 12.5001 34.6666 12.3334 35L11.8334 36.1666C11.6667 36.3333 11.8334 36.6666 12.1667 36.8333L15.0001 38L12.8334 40.1666C12.6667 40.3333 12.6667 40.6666 12.8334 40.8333L13.6667 41.6666C13.8334 41.8333 14.1667 41.8333 14.3334 41.6666L16.3334 39.8333L16.8334 42.5C16.8334 42.8333 17.1667 43 17.3334 42.8333L18.6667 42.6666C19.0001 42.6666 19.1667 42.3333 19.0001 42.1666L18.5001 39.5L21.1667 40.5C21.3334 40.6666 21.6667 40.5 21.8334 40.1666L22.3334 39C22.3334 38.6666 22.1667 38.5 22.0001 38.3333Z" fill="white"/>
    <path d="M35.5001 31.5C35.5001 31.5 30.3334 34 29.5001 34.6667C28.6667 35.1667 28.3334 35.5 27.8334 36C26.5001 38 27.0001 40.5 29.0001 41.8334C31.0001 43.1667 33.5001 42.6667 34.8334 40.6667C35.3334 40 35.3334 39.6667 35.5001 38.6667C35.6667 37.6667 36.1667 31.8333 36.1667 31.8333C36.1667 31.5 35.8334 31.3333 35.5001 31.5Z" fill="white"/>
</svg>
