<svg width="50" height="50" viewBox="0 0 50 50" fill="none" xmlns="http://www.w3.org/2000/svg">
<path d="M25 0C11.1667 0 0 11.1667 0 25C0 38.8333 11.1667 50 25 50C38.8333 50 50 38.8333 50 25C50 11.1667 38.8333 0 25 0Z" fill="#F4DF46"/>
<path d="M25 0V50C38.8333 50 50 38.8333 50 25C50 11.1667 38.8333 0 25 0Z" fill="#DCC31E"/>
<path fill-rule="evenodd" clip-rule="evenodd" d="M25.1666 38C24.1666 38 23.6666 38.6666 23.6666 39.5V41.6666C23.6666 42.5 24.3333 43.1666 25.1666 43.1666H25.3333C26.1666 43.1666 26.8333 42.5 26.8333 41.6666V39.5C26.4999 38.6666 25.9999 38 25.1666 38ZM33.4999 36.8333C33.1666 36.1666 32.1666 35.8333 31.4999 36.3333H31.3333C30.6666 36.6666 30.3333 37.6666 30.8333 38.3333L31.8333 40.1666C32.1666 40.8333 33.1666 41.1666 33.8333 40.6666H33.9999C34.6666 40.3333 34.9999 39.3333 34.4999 38.6666L33.4999 36.8333ZM18.4999 36.3333C17.6666 35.8333 16.8333 36.1666 16.4999 36.8333L15.4999 38.6666C15.1666 39.3333 15.3333 40.1666 15.9999 40.6666H16.1666C16.8333 41 17.6666 40.8333 18.1666 40.1666L19.1666 38.3333C19.3333 37.5 19.1666 36.6666 18.4999 36.3333ZM24.9999 14.1666C18.9999 14.1666 13.9999 19 13.9999 25.1666C13.9999 31.1666 18.8333 36.1666 24.9999 36.1666C30.9999 36.1666 35.9999 31.3333 35.9999 25.1666C35.9999 19 31.1666 14.1666 24.9999 14.1666ZM41.6666 23.5H39.4999C38.6666 23.5 37.9999 24.1666 37.9999 25V25.1666C37.9999 26 38.6666 26.6666 39.4999 26.6666H41.6666C42.4999 26.6666 43.1666 26 43.1666 25.1666V25C42.9999 24.1666 42.4999 23.5 41.6666 23.5ZM40.1666 32L38.3333 31C37.6666 30.6666 36.8333 30.8333 36.3333 31.5V31.6666C35.9999 32.3333 36.1666 33.1666 36.8333 33.6666L38.6666 34.6666C39.3333 35 40.1666 34.8333 40.6666 34.1666V34C40.9999 33.3333 40.8333 32.5 40.1666 32ZM31.4999 13.6666C32.3333 14.1666 33.1666 13.8333 33.4999 13.1666L34.4999 11.3333C34.8333 10.6666 34.6666 9.8333 33.9999 9.3333H33.8333C33.1666 8.99996 32.3333 9.16663 31.8333 9.8333L30.9999 11.6666C30.6666 12.5 30.8333 13.3333 31.4999 13.6666ZM36.3333 18.6666C36.6666 19.3333 37.6666 19.6666 38.3333 19.1666L40.1666 18.1666C40.8333 17.8333 41.1666 16.8333 40.6666 16.1666V16C40.3332 15.3333 39.3333 15 38.6666 15.5L36.8333 16.5C36.1666 16.8333 35.8333 17.8333 36.3333 18.6666ZM24.9999 12C25.9999 12 26.4999 11.3333 26.4999 10.5V8.3333C26.4999 7.49996 25.8333 6.8333 24.9999 6.8333C24.1666 6.8333 23.4999 7.49996 23.4999 8.3333V10.5C23.4999 11.3333 24.1666 12 24.9999 12ZM11.9999 25.1666C11.9999 24.1666 11.3333 23.6666 10.4999 23.6666H8.33325C7.49992 23.6666 6.83325 24.3333 6.83325 25.1666V25.3333C6.83325 26.1666 7.49992 26.8333 8.33325 26.8333H10.4999C11.3333 26.5 11.9999 26 11.9999 25.1666ZM16.4999 13.1666C16.8333 13.8333 17.8333 14.1666 18.4999 13.6666H18.6666C19.3333 13.3333 19.6666 12.3333 19.1666 11.6666L18.1666 9.8333C17.8333 9.16663 16.8333 8.8333 16.1666 9.3333H15.9999C15.3333 9.8333 14.9999 10.6666 15.4999 11.3333L16.4999 13.1666ZM13.6666 31.3333C13.3333 30.6666 12.3333 30.3333 11.6666 30.8333L9.83325 31.8333C9.16659 32.1666 8.83325 33.1666 9.33325 33.8333V34C9.66659 34.6666 10.6666 35 11.3333 34.5L13.1666 33.5C13.8333 33.1666 14.1666 32.1666 13.6666 31.3333ZM13.1666 16.3333L11.3333 15.3333C10.6666 15 9.83325 15.1666 9.49992 15.8333V16C9.16658 16.6666 9.33325 17.5 9.99992 18L11.6666 19C12.3333 19.3333 13.1666 19.1666 13.6666 18.5V18.3333C14.1666 17.6666 13.9999 16.8333 13.1666 16.3333Z" fill="white"/>
</svg>
