<svg width="50" height="50" viewBox="0 0 50 50" fill="none" xmlns="http://www.w3.org/2000/svg">
<path d="M25 0C11.1667 0 0 11.1667 0 25C0 38.8333 11.1667 50 25 50C38.8333 50 50 38.8333 50 25C50 11.1667 38.8333 0 25 0Z" fill="#AF4FA4"/>
<path d="M25 0C38.8333 0 50 11.1667 50 25C50 38.8333 38.8333 50 25 50V0Z" fill="#8E1B7C"/>
<path d="M39.4999 23.1667C30.6666 24.3333 21.8332 24.3333 12.9999 22.8333C12.4999 22.8333 11.9999 23.1667 11.9999 23.6667C11.9999 24.1667 12.3332 24.8333 12.6666 24.8333C17.4999 25.6667 22.3332 26 27.3332 26C31.4999 26 35.4999 25.6667 39.6666 25.1667C40.1666 25.1667 40.4999 24.6667 40.4999 24C40.4999 23.5 39.9999 23 39.4999 23.1667ZM28.8332 32.5C23.8332 32.6667 18.8332 32.1667 13.8332 31.5C13.3332 31.5 12.8332 31.8333 12.8332 32.3333C12.8332 32.8333 13.1666 33.5 13.4999 33.5C17.9999 34.1667 22.6666 34.6667 27.3332 34.6667C27.8332 34.6667 28.3332 34.6667 28.8332 34.6667C29.3332 34.6667 29.6666 34.1667 29.6666 33.6667C29.6666 32.8333 29.3332 32.5 28.8332 32.5ZM43.9999 18.8333C43.9999 18.3333 43.4999 17.8333 42.9999 18C33.4999 19.6667 23.8332 19.8333 14.1666 18.5C13.8332 18.3333 13.3332 18.6667 13.3332 19.3333C13.3332 19.8333 13.6666 20.5 14.1666 20.5C18.6666 21.1667 22.9999 21.5 27.4999 21.5C32.8332 21.5 38.1666 21 43.4999 20.1667C43.8332 19.8333 44.1666 19.3333 43.9999 18.8333ZM35.6666 28.1667C27.8332 29 19.9999 28.6667 12.1666 27.1667C11.6666 27 11.1666 27.5 11.1666 28C11.1666 28.5 11.4999 29.1667 11.8332 29.1667C16.9999 30 22.1666 30.5 27.3332 30.5C30.1666 30.5 32.9999 30.3333 35.8332 30.1667C36.3332 30.1667 36.6666 29.6667 36.6666 29C36.6666 28.5 36.1666 28 35.6666 28.1667ZM40.1666 16.1667C40.6666 16.1667 40.9999 15.5 40.9999 15C40.9999 14.5 40.4999 14 39.9999 14.1667C31.1666 15.3333 22.4999 15.1667 13.8332 13.8333C17.1666 13.3333 23.4999 12.8333 32.6666 13.1667C33.1666 13.1667 33.4999 12.6667 33.4999 12.1667C33.4999 11.6667 33.1666 11.1667 32.6666 11.1667C24.4999 11 19.1666 11.3333 15.9999 11.6667C9.49991 12.3333 9.33324 13.1667 9.33324 14C9.16658 15.1667 10.3332 15.5 10.9999 15.6667H11.1666C16.4999 16.6667 21.9999 17.1667 27.3332 17.1667C31.6666 17 35.8332 16.6667 40.1666 16.1667ZM25.6666 36.6667C22.6666 36.6667 19.4999 36.3333 16.4999 36C15.9999 36 15.6666 36.3333 15.4999 37C15.4999 37.5 15.8332 38.1667 16.3332 38.1667C19.3332 38.5 22.4999 38.8333 25.6666 38.8333C26.1666 38.8333 26.4999 38.3333 26.4999 37.8333C26.4999 37 26.1666 36.6667 25.6666 36.6667ZM24.1666 40.6667C22.9999 40.6667 21.9999 40.5 20.8332 40.5C20.3332 40.5 19.9999 40.8333 19.8332 41.5C19.8332 42 20.1666 42.5 20.6666 42.6667C21.8332 42.8333 22.9999 42.8333 23.9999 42.8333C24.4999 42.8333 24.8332 42.3333 24.8332 41.8333C24.9999 41.1667 24.6666 40.6667 24.1666 40.6667Z" fill="white"/>
</svg>
