<svg width="50" height="50" viewBox="0 0 50 50" fill="none" xmlns="http://www.w3.org/2000/svg">
<path d="M25 50C38.8333 50 50 38.8333 50 25C50 11.1667 38.8333 0 25 0C11.1667 0 0 11.1667 0 25C0 38.8333 11.1667 50 25 50Z" fill="#4D74AD"/>
<path d="M25 0C38.8333 0 50 11.1667 50 25C50 38.8333 38.8333 50 25 50V0Z" fill="#1F4586"/>
<path d="M7.83341 21.3333H33.6667C37.1667 21.3333 40.1667 18.5 40.1667 14.8333C40.1667 11.3333 37.3334 8.33333 33.6667 8.33333C30.1667 8.33333 27.1667 11.1667 27.1667 14.8333C27.1667 15.8333 27.8334 16.5 28.8334 16.5C29.8334 16.5 30.5001 15.8333 30.5001 14.8333C30.5001 13 32.0001 11.6667 33.6667 11.6667C35.5001 11.6667 36.8334 13.1667 36.8334 14.8333C36.8334 16.6667 35.3334 18 33.6667 18H7.83341C6.83341 18 6.16675 18.6667 6.16675 19.6667C6.16675 20.6667 6.83341 21.3333 7.83341 21.3333Z" fill="white"/>
<path d="M24.0001 27.6667H7.83341C7.00008 27.6667 6.16675 28.3333 6.16675 29.3333C6.16675 30.1667 6.83341 31 7.83341 31H24.0001C25.8334 31 27.1667 32.5 27.1667 34.1667C27.1667 36 25.6667 37.3333 24.0001 37.3333C22.1667 37.3333 20.8334 35.8333 20.8334 34.1667C20.8334 33.1667 20.1667 32.5 19.1667 32.5C18.1667 32.5 17.5001 33.1667 17.5001 34.1667C17.5001 37.6667 20.3334 40.6667 24.0001 40.6667C27.5001 40.6667 30.5001 37.8333 30.5001 34.1667C30.5001 30.6667 27.5001 27.6667 24.0001 27.6667Z" fill="white"/>
<path d="M38.5001 22.8333H7.83341C7.00008 22.8333 6.16675 23.5 6.16675 24.5C6.16675 25.3333 6.83341 26.1667 7.83341 26.1667H38.5001C40.3334 26.1667 41.6667 27.6667 41.6667 29.3333C41.6667 31.1667 40.1667 32.5 38.5001 32.5C36.6667 32.5 35.3334 31 35.3334 29.3333C35.3334 28.3333 34.6667 27.6667 33.6667 27.6667C32.6667 27.6667 32.0001 28.3333 32.0001 29.3333C32.0001 32.8333 34.8334 35.8333 38.5001 35.8333C42.0001 35.8333 45.0001 33 45.0001 29.3333C45.0001 25.8333 42.0001 22.8333 38.5001 22.8333Z" fill="white"/>
</svg>
