<svg width="50" height="50" viewBox="0 0 50 50" fill="none" xmlns="http://www.w3.org/2000/svg">
<path d="M25 50C38.8333 50 50 38.8333 50 25C50 11.1667 38.8333 0 25 0C11.1667 0 0 11.1667 0 25C0 38.8333 11.1667 50 25 50Z" fill="#949AAF"/>
<path d="M25 0C38.8333 0 50 11.1667 50 25C50 38.8333 38.8333 50 25 50V0Z" fill="#303443"/>
<path d="M23.8334 10.6667C24.5001 10.8334 25.3334 10.6667 25.8334 10.1667C26.3334 9.83335 26.6667 9.33335 26.8334 8.83335C27.0001 8.16669 27.1667 7.50002 27.3334 7.00002C27.5001 5.83335 27.6667 4.66669 28.3334 3.66669C28.0001 3.83335 27.8334 4.00002 27.5001 4.16669C26.5001 4.66669 25.5001 5.00002 24.3334 5.33335C23.5001 5.66669 22.6667 6.00002 22.1667 6.66669C21.8334 6.83335 21.6667 7.33335 21.6667 7.83335C21.6667 8.50002 21.8334 9.16669 22.1667 9.66669C22.6667 10.1667 23.1667 10.5 23.8334 10.6667Z" fill="white"/>
<path d="M12.5001 15.3334C13.1667 15.5 13.8334 15.3334 14.3334 14.8334C14.8334 14.5 15.0001 14 15.1667 13.6667C15.3334 13.1667 15.5001 12.5 15.5001 12C15.6667 11 15.8334 10 16.3334 9.00005C16.1667 9.16671 16.0001 9.33338 15.6667 9.50005C14.8334 10 14.0001 10.1667 13.0001 10.5C12.3334 10.6667 11.6667 11 11.1667 11.5C10.8334 12 10.6667 12.3334 10.6667 12.8334C10.6667 13.3334 10.8334 14 11.1667 14.3334C11.5001 14.8334 12.0001 15.1667 12.5001 15.3334Z" fill="white"/>
<path d="M39.3333 8.33333C39.1667 8.49999 38.8333 8.83333 38.5 9C37.5 9.66666 36.5 9.99999 35.5 10.3333C34.6667 10.6667 34 11 33.5 11.8333C33.1667 12.3333 33 12.8333 33 13.3333C33 14 33.3333 14.5 33.6667 15C34.1667 15.5 34.8333 15.8333 35.5 15.8333C36.1667 15.8333 37 15.6667 37.5 15.1667C38 14.8333 38.1667 14.1667 38.3333 13.6667C38.5 13 38.5 12.3333 38.6667 11.6667C38.6667 10.6667 38.8333 9.49999 39.3333 8.33333Z" fill="white"/>
<path d="M25 15.1667V14.1667C25 13.3333 23.6667 13.3333 23.6667 14.1667V15.1667C15.8333 15.5 9.33333 21.8333 9 29.8333C10.1667 28.1667 12 27 14.1667 27C16.1667 27 18.1667 28 19.1667 29.5C20.1667 28 21.8333 26.8333 23.6667 26.5V30V39.6667V39.8333C23.5 41.3333 22.3333 42.5 20.8333 42.5C19.3333 42.5 18 41.1667 18 39.6667C18 38.8333 16.6667 38.8333 16.6667 39.6667C16.6667 42 18.5 43.8333 20.8333 43.8333C23.1667 43.8333 25 41.8333 25 39.6667V39.5V30.6667V26.3333C26.8333 26.5 28.5 27.3333 29.5 28.6667C30.6667 27.1667 32.5 26.3333 34.3333 26.3333C36.6667 26.3333 38.5 27.5 39.6667 29.3333C39.1667 21.6667 32.8333 15.5 25 15.1667Z" fill="white"/>
</svg>
