<svg width="5001" height="2950" viewBox="0 0 5001 2950" fill="none" xmlns="http://www.w3.org/2000/svg">
<path d="M251.076 2045.87V2046.92L250.724 2047.98V2049.74V2047.98L251.076 2046.92V2045.87L250.372 2044.81L251.076 2045.87Z" fill="#D3C9A8" fill-opacity="0.2"/>
<path d="M208.822 2037.78L209.174 2037.43L208.822 2037.78L207.766 2039.18L207.062 2040.59L207.766 2039.18L208.822 2037.78Z" fill="#D3C9A8" fill-opacity="0.2"/>
<path d="M240.513 2078.93H239.809H240.513L241.569 2079.29L242.273 2078.93L241.569 2079.29L240.513 2078.93Z" fill="#D3C9A8" fill-opacity="0.2"/>
<path d="M206.71 2042V2041.3V2042L206.006 2043.05V2043.76V2043.05L206.71 2042Z" fill="#D3C9A8" fill-opacity="0.2"/>
<path d="M212.696 2050.09L209.879 2050.79L212.696 2050.09Z" fill="#D3C9A8" fill-opacity="0.2"/>
<path d="M234.878 2080.34H234.526V2080.69V2080.34H234.878L235.935 2079.99L236.287 2080.34L235.935 2079.99L234.878 2080.34Z" fill="#D3C9A8" fill-opacity="0.2"/>
<path d="M249.315 2065.57L250.019 2066.97L250.371 2068.03L250.723 2068.73L250.371 2068.03L250.019 2066.97L249.315 2065.57L248.963 2064.51V2063.81V2064.51L249.315 2065.57Z" fill="#D3C9A8" fill-opacity="0.2"/>
<path d="M216.921 2031.8L215.16 2032.15L214.456 2033.91L215.16 2032.15L216.921 2031.8Z" fill="#D3C9A8" fill-opacity="0.2"/>
<path d="M222.203 2063.81L222.555 2063.1L222.907 2061.35L223.259 2059.24L223.963 2058.18L224.668 2057.83L225.372 2057.12L224.668 2057.83L223.963 2058.18L223.259 2059.24L222.907 2061.35L222.555 2063.1L222.203 2063.81L221.146 2064.16V2064.51V2064.16L222.203 2063.81Z" fill="#D3C9A8" fill-opacity="0.2"/>
<path d="M248.611 2070.84L248.259 2071.2L248.611 2070.84L250.019 2070.14L250.724 2069.08L250.019 2070.14L248.611 2070.84Z" fill="#D3C9A8" fill-opacity="0.2"/>
<path d="M225.371 2064.51L225.02 2064.86L225.371 2064.51Z" fill="#D3C9A8" fill-opacity="0.2"/>
<path d="M224.668 2073.66L222.907 2074.36L224.668 2073.66Z" fill="#D3C9A8" fill-opacity="0.2"/>
<path d="M228.188 2078.58V2078.93L228.54 2079.28L228.188 2078.93V2078.58Z" fill="#D3C9A8" fill-opacity="0.2"/>
<path d="M225.723 2071.9L224.667 2069.08L225.371 2066.97L224.667 2069.08L225.723 2071.9H223.963L222.202 2072.6L223.963 2071.9H225.723Z" fill="#D3C9A8" fill-opacity="0.2"/>
<path d="M249.668 2052.9L250.37 2052.55L250.721 2052.2L250.37 2052.55L249.668 2052.9Z" fill="#D3C9A8" fill-opacity="0.2"/>
<path d="M251.075 2051.85L250.724 2051.15L251.075 2051.85Z" fill="#D3C9A8" fill-opacity="0.2"/>
<path d="M214.809 2052.9L215.159 2052.55H215.861H215.159L214.809 2052.9Z" fill="#D3C9A8" fill-opacity="0.2"/>
<path d="M212.343 2052.55L211.639 2052.9L210.935 2052.2L211.639 2052.9L212.343 2052.55L212.695 2052.2L213.399 2051.85L212.695 2052.2L212.343 2052.55Z" fill="#D3C9A8" fill-opacity="0.2"/>
<path d="M229.597 2081.05H230.653L231.005 2080.69L230.653 2081.05H229.597Z" fill="#D3C9A8" fill-opacity="0.2"/>
<path d="M249.667 2054.66L249.315 2053.96L249.667 2053.61L249.315 2053.96L249.667 2054.66Z" fill="#D3C9A8" fill-opacity="0.2"/>
<path fill-rule="evenodd" clip-rule="evenodd" d="M716.569 2195.02L708.47 2191.15L691.921 2172.86L634.174 2133.46L617.977 2161.25L619.738 2179.19L619.386 2183.06L615.512 2182.7L591.217 2162.3L575.724 2138.03L573.259 2136.62L564.456 2140.84L573.259 2158.43L580.301 2168.63L571.146 2192.2L564.808 2221.05L565.512 2225.27L559.526 2230.54L560.231 2237.58L555.653 2238.99L558.47 2242.86L565.865 2246.02L562.696 2272.76L579.597 2290.35L584.527 2293.86L587.696 2316.02L582.414 2321.65L579.597 2320.25L547.555 2340.3L548.259 2345.57L556.005 2345.92L600.372 2356.12L639.104 2385.67L646.146 2431.75L645.442 2469.04L660.935 2477.84L725.372 2392.71L820.09 2283.31L828.188 2285.77L934.879 2314.62L951.428 2340.65L1010.23 2526.03L1085.58 2559.09L1120.09 2579.85L1146.85 2583.37L1161.99 2654.07L1176.78 2662.16L1148.96 2702.61L1141.57 2720.55L1159.17 2731.81L1156.01 2787.39L1185.58 2799.35L1209.88 2818.7L1209.53 2828.9L1202.13 2838.4L1215.86 2855.28L1223.61 2836.28L1224.32 2831.36L1238.75 2833.12L1257.77 2822.92L1273.61 2819.05L1278.89 2820.46L1319.03 2811.66L1346.5 2806.03L1365.51 2806.74L1398.96 2781.06L1409.88 2779.65L1501.08 2837.34L1520.44 2802.87L1548.61 2799L1593.68 2833.12L1635.58 2848.24L1774.32 2900.66L1798.96 2929.5L1829.95 2949.2L1829.6 2934.08L1849.32 2916.14H1849.67L1848.61 2904.53L1870.44 2902.06L1866.57 2845.78L1877.13 2796.54L1855.65 2773.32L1952.13 2766.28L1960.58 2778.95L1988.4 2785.63L1991.92 2778.24L1979.95 2767.34L2003.54 2718.09V2708.59L2011.29 2708.95L2046.15 2654.07L2088.05 2680.45L2098.96 2680.8L2122.55 2693.82L2140.86 2688.54L2153.19 2686.43L2162.34 2669.9L2161.29 2627.34L2171.85 2616.43L2175.37 2600.95L2220.79 2594.27L2228.19 2565.07L2245.09 2560.15L2239.81 2552.41L2235.23 2535.17L2208.82 2548.89L2206.36 2550.3L2204.6 2548.19L2194.39 2535.53L2168.68 2530.25L2166.22 2529.55L2165.86 2526.73L2165.16 2500.35L2140.16 2486.28L2138.75 2485.22L2138.4 2483.46L2134.88 2452.51L2121.85 2425.77L2104.95 2418.39L2070.44 2431.4L2069.03 2431.75L2067.63 2431.05L2021.5 2406.08L2020.09 2405.37L2019.74 2403.61L2015.86 2382.86L2006.01 2378.99L1992.63 2398.34L1991.57 2399.39L1990.16 2399.74L1968.33 2402.91L1965.16 2403.61L1964.46 2400.45L1923.26 2204.87V2204.51L1886.99 2144.71L1885.58 2142.6L1887.7 2140.49L1899.67 2127.83L1861.64 2127.48L1826.43 2133.81L1814.46 2144.01L1813.75 2144.71H1813.05L1797.91 2148.23H1796.85L1795.44 2147.88L1779.95 2139.44L1762.34 2144.71L1757.77 2146.12V2141.2V2127.83V2126.42L1759.17 2125.37L1775.37 2111.65L1765.16 2100.04L1753.19 2097.23L1735.93 2096.52L1732.77 2096.17V2093L1731.36 2076.47L1697.55 2068.73L1695.44 2068.03L1695.09 2065.92L1691.57 2051.85L1691.22 2050.09L1692.63 2048.68L1707.77 2031.09L1703.54 2017.73L1702.84 2015.97L1704.24 2014.56L1710.93 2007.17L1710.23 1989.59L1695.44 1985.72L1682.06 1983.61L1680.3 1983.25L1679.6 1981.85L1661.29 1950.89L1639.81 1951.24H1639.1L1609.53 1964.96L1608.47 1965.31L1607.41 1964.96L1528.89 1950.19L1528.19 1949.84H1527.84L1506.36 1938.23L1492.27 1949.48L1490.51 1950.89L1488.4 1949.48L1461.99 1933.3L1412.7 1922.05L1367.63 1919.23H1366.22L1365.51 1918.18L1345.09 1896.37L1333.82 1899.53L1320.09 1913.96L1326.08 1935.06L1340.16 1958.28L1341.57 1960.74L1339.46 1962.5L1327.84 1973.4L1325.37 1975.52L1323.26 1973.76L1304.95 1959.33L1290.86 1958.63L1278.54 1965.31L1276.08 1986.07L1275.72 1989.23H1272.91L1242.63 1991.7L1234.17 2002.95L1234.53 2003.66L1258.12 2055.37L1259.17 2057.12L1258.12 2058.88L1244.39 2078.23V2078.58L1243.68 2078.93L1230.3 2089.14L1228.89 2090.19L1227.13 2089.49L1196.15 2079.64L1194.74 2078.93L1194.03 2077.88L1187.34 2063.81L1180.3 2061.7L1169.03 2068.38L1167.63 2069.08L1166.22 2068.73L1153.54 2064.51L1152.84 2064.16L1152.13 2063.46L1136.99 2046.57L1136.29 2046.22V2045.16L1132.77 2031.8V2031.09V2030.39L1135.93 2009.28L1122.55 2001.55L1122.2 2001.19V2000.84L1113.05 1991.7L1104.6 2000.84L1103.19 2002.25L1101.43 2001.9L1088.05 1999.44L1086.29 1999.08L1085.58 1997.68L1079.6 1987.47L1079.24 1986.77V1985.72L1079.95 1975.52L1056.01 1964.96L1043.68 1964.26L1029.6 1973.76L1027.48 1975.16L1025.37 1973.76L1012.7 1964.61L1011.64 1963.55V1962.15L1007.41 1941.04L1002.48 1930.14L996.85 1928.73L979.245 1939.63L975.724 1941.39L973.963 1938.23L966.569 1923.1L965.865 1921.69L966.569 1920.29L973.611 1902.7L967.273 1874.56L960.935 1853.1L946.146 1847.82L945.09 1847.47L944.386 1846.77L938.752 1840.09L936.991 1838.68L938.048 1836.57L942.977 1826.01L943.329 1817.57L930.301 1811.24L923.611 1817.22L922.907 1817.92H921.85L910.231 1820.39L907.414 1821.09L906.357 1818.28L896.146 1794L895.794 1793.3V1792.6L896.85 1775.36L885.935 1777.82L866.921 1782.75H866.569H866.217L840.16 1784.51H839.104L838.048 1783.8L831.358 1778.88L823.963 1779.58L810.583 1790.49L809.174 1791.54L807.766 1791.19L783.47 1786.62L774.315 1796.47L765.512 1814.41L764.808 1815.46L763.752 1816.17L745.442 1824.26L742.273 1825.66L740.865 1822.85L731.71 1806.32L731.005 1804.91L731.357 1803.5L735.231 1790.49L736.991 1775.71L722.555 1761.99L721.146 1761.64L713.048 1764.46L687.343 1771.14L665.16 1783.45L661.287 1803.5L660.583 1805.61L658.822 1806.32L632.414 1814.76L615.512 1821.79L610.231 1824.96L627.132 1848.53L628.893 1850.99L626.428 1853.1L605.653 1872.45L603.893 1881.95L618.329 1885.46L619.738 1885.81L620.442 1886.87L632.062 1902.7L633.118 1903.75L632.766 1905.51L619.386 1980.79L619.034 1982.9L616.569 1983.61L602.484 1986.07L607.414 2008.93L621.146 2019.49L641.217 2013.15L703.188 2017.02L718.681 2021.24L720.09 2028.98L717.625 2049.74L774.667 2097.58L753.188 2140.49L740.512 2150.69L732.062 2151.4L725.372 2182.35L747.555 2192.91L758.822 2190.44L772.203 2201.7L771.146 2208.03L767.625 2211.55L761.991 2212.25L757.414 2233.36L750.724 2236.17L737.696 2231.95L710.583 2224.92L679.597 2242.15L672.555 2232.3L683.822 2220.7L704.245 2211.9L729.597 2208.03L716.569 2195.02Z" fill="#D3C9A8" fill-opacity="0.5"/>
<path fill-rule="evenodd" clip-rule="evenodd" d="M1565.16 1395.1L1557.06 1409.17L1551.08 1422.54V1422.89L1523.96 1458.42V1458.77L1483.47 1498.17V1498.52H1483.12L1449.32 1514L1448.61 1529.12L1459.53 1549.88L1459.88 1550.93L1459.17 1551.64L1444.39 1568.87L1442.27 1591.39V1591.74L1441.92 1592.09L1432.41 1604.05L1432.06 1604.4H1431.36L1399.32 1606.16L1394.74 1626.21V1626.92L1394.03 1627.27L1380.65 1635.71L1379.6 1636.41L1378.54 1635.71L1365.86 1621.29L1347.91 1649.43L1347.55 1650.13H1346.85L1317.27 1653.3L1291.92 1683.2L1296.5 1696.92L1308.12 1706.41L1336.64 1718.73L1345.79 1720.13L1349.32 1719.43L1347.2 1722.95L1345.09 1739.13V1739.48H1344.74L1334.88 1758.12L1336.29 1767.62L1346.15 1780.99L1346.85 1781.69L1346.5 1782.4L1340.51 1794.36L1340.16 1794.71L1339.81 1795.06L1331.01 1799.63L1329.95 1800.34L1329.25 1799.63L1312.7 1783.45L1306.36 1778.88L1296.85 1778.17L1285.58 1783.1L1284.88 1783.8L1283.82 1783.1L1274.32 1775.36L1273.61 1774.66V1773.95L1273.26 1753.55L1264.46 1742.29L1253.89 1741.59L1233.82 1753.55L1228.89 1767.97L1240.16 1793.65L1250.02 1801.39L1293.68 1815.81L1303.19 1810.54L1310.58 1807.37L1311.64 1806.67L1312.34 1807.72L1325.02 1820.74L1326.43 1822.15L1325.02 1823.2L1315.86 1830.24L1315.51 1830.59H1315.16L1301.78 1834.81L1296.85 1853.1L1296.5 1854.16H1295.09H1286.99H1286.64L1286.29 1853.8L1272.91 1847.12L1246.15 1861.89L1229.95 1889.68L1227.48 1906.57L1227.13 1907.62H1226.08L1206.36 1912.2L1204.6 1925.92L1202.13 1939.63L1235.23 1949.84L1235.94 1950.19L1236.29 1950.54L1242.98 1965.67L1243.33 1966.02L1242.98 1966.72L1239.81 1976.92L1239.46 1977.63H1239.1L1226.78 1987.47L1231.36 2000.84L1240.86 1988.53L1272.55 1985.72L1275.02 1963.2L1290.16 1954.76L1306.01 1955.82L1325.37 1970.94L1336.99 1960.04L1322.91 1936.47L1316.22 1913.25L1332.06 1896.37L1346.15 1892.15L1367.98 1915.71L1413.05 1918.53L1463.4 1929.79L1490.16 1946.67L1506.01 1934.01L1529.6 1946.67L1608.12 1961.8L1638.4 1947.73H1639.81L1663.4 1947.37L1682.77 1980.09L1698.26 1982.55L1698.61 1981.85L1703.89 1968.13V1967.78H1704.25L1731.71 1942.1L1735.94 1922.4V1922.05L1736.29 1921.69L1752.84 1903.4L1753.19 1902.7L1754.25 1903.05L1775.02 1907.27L1780.3 1898.83L1783.47 1883.7L1777.84 1868.23L1760.23 1861.54L1759.53 1861.19V1860.49L1756.71 1850.99V1850.29L1757.06 1849.58L1765.51 1839.38L1767.98 1814.05V1813.35L1768.68 1813L1798.26 1784.15L1799.32 1783.1L1800.37 1784.15L1816.92 1800.69L1817.63 1801.74L1816.92 1802.8L1807.77 1815.46L1819.39 1817.92H1819.74H1820.09L1850.02 1839.38L1872.91 1835.86H1873.61L1873.96 1836.22L1895.44 1848.18L1916.22 1848.88L1947.91 1827.42L1975.37 1811.94L1978.54 1794.71L1978.89 1794L1979.25 1793.65L1996.5 1782.4L1996.85 1782.04L1997.55 1782.4L2017.63 1784.51L2035.23 1728.58V1728.22L2035.58 1727.87L2060.23 1709.23L2060.94 1708.52L2061.64 1708.88L2088.4 1716.62H2088.75L2124.32 1740.54L2178.54 1741.24H2178.89L2179.25 1741.59L2216.92 1769.03L2262.34 1743L2263.05 1742.65L2263.75 1743.35L2287.34 1759.88L2313.75 1756.72L2342.98 1744.05L2348.26 1730.69L2315.16 1711.69L2314.46 1711.34V1710.28V1669.13L2315.86 1666.31L2355.65 1615.66L2358.12 1582.94V1582.59L2358.47 1582.24L2384.88 1546.01L2379.95 1516.46L2349.67 1493.95L2348.96 1493.6L2349.32 1492.54L2356.71 1449.98L2336.64 1422.54L2336.29 1421.84L2336.64 1421.48L2342.63 1362.39L2317.63 1329.67L2317.27 1328.97L2317.63 1328.27L2327.48 1298.37L2317.63 1274.45L2316.92 1273.04L2318.68 1272.34L2350.72 1263.89L2364.46 1229.07L2357.41 1187.91L2323.61 1179.47H2322.91L2322.55 1179.12L2291.57 1137.96L2291.22 1137.61V1136.91L2297.56 1111.93L2297.91 1111.23L2298.61 1110.88L2345.09 1090.12L2349.67 1071.48L2329.95 1029.62V1029.27V1028.91L2334.88 1001.48V1000.42L2336.29 1000.07L2356.36 996.903L2337.34 956.45V956.099V955.747L2336.99 952.581L2320.09 953.636L2311.64 983.536L2284.17 958.561L2276.78 984.592L2306.01 1016.25L2307.77 1043.69L2253.89 996.2L2252.48 965.948L2275.02 938.51L2278.19 894.188L2269.03 898.409L2258.12 928.661L2241.57 943.435L2223.96 948.712L2207.06 973.687L2208.12 1039.82L2166.92 1104.19L2169.39 1143.24H2211.29L2245.79 1184.39V1223.44L2221.5 1252.99L2228.19 1266.36L2247.2 1276.91L2211.29 1285.35L2201.43 1247.71L2228.19 1200.93L2216.57 1165.75L2175.37 1160.12L2152.84 1181.93L2150.37 1231.18L2112.7 1269.52L2078.19 1282.19L2054.95 1307.16L1976.43 1258.62V1235.4L2028.89 1259.67L2056.71 1248.77L2101.08 1220.27L2131.01 1160.12L2126.08 1127.41L2177.13 1006.4L2182.77 985.295L2177.13 957.857L2210.58 925.847L2217.27 881.524L2191.22 847.403L2217.98 843.885L2214.1 811.875L2187.7 809.764L2185.58 833.332L2191.22 847.403L2174.67 840.72L2149.32 860.067L2119.39 898.409L2095.79 920.922L2060.94 929.364L2042.27 946.953L2060.94 971.224L2040.86 1007.1L2013.05 1015.55L2012.34 1027.86L2036.64 1053.19L2028.19 1076.4L2032.41 1091.53L2041.57 1104.9L2010.58 1133.39L2000.37 1117.56L1992.27 1081.33L1959.53 1028.91L1940.86 1044.74L1951.78 1064.09L1952.13 1064.79L1951.78 1065.85L1928.89 1106.3L1937.7 1135.5L1938.05 1136.2L1937.7 1136.91L1923.26 1158.72L1922.91 1159.07L1922.55 1159.42L1899.67 1166.81L1884.53 1184.75L1884.17 1185.1H1883.47L1825.72 1187.56L1796.5 1211.83L1796.15 1212.18H1795.44L1777.48 1212.54H1776.78L1755.3 1212.89L1729.25 1236.1L1728.89 1236.46H1728.19L1704.6 1237.51H1703.89L1703.19 1236.81L1695.79 1224.85L1657.77 1258.62L1651.43 1280.43V1281.13H1651.08L1610.94 1317.01L1566.92 1392.64L1567.98 1393.69L1565.16 1395.1Z" fill="#D3C9A8" fill-opacity="0.5"/>
<path fill-rule="evenodd" clip-rule="evenodd" d="M4148.61 542.423L4139.81 558.956L4094.03 584.986L4060.58 553.328L4027.13 549.81L3979.24 580.765L3946.5 620.867L3934.88 662.023L3913.05 668.707L3886.29 655.34L3860.58 657.802L3847.2 675.39L3835.23 665.189L3824.31 676.797L3810.93 664.485L3830.3 645.138L3785.23 641.972L3759.17 664.485L3773.61 713.029L3747.55 738.004V700.365H3729.95L3712.34 716.195L3708.12 696.848L3734.17 673.631L3706.71 675.39L3624.67 716.899L3640.51 736.246L3616.92 758.759L3626.08 775.643L3642.98 767.201L3644.74 791.473L3664.81 814.689L3633.82 822.428L3624.67 834.74L3632.77 854.791L3607.77 859.012L3574.31 849.162L3564.46 886.801L3507.41 876.6V960.32L3467.27 953.637L3405.3 897.706L3427.84 881.525L3390.16 825.594L3365.86 813.986L3329.24 826.649L3288.05 810.82L3282.41 874.138L3207.77 905.796L3179.6 886.801L3183.47 871.675L3107.41 870.972L3087.34 897.706L3082.41 915.294L3077.48 889.264L3063.05 876.6L3046.5 894.188L3023.26 905.796L3021.85 921.626L3032.77 936.048L3033.12 936.4V936.752L3038.05 962.431L3073.96 1013.08V1013.79V1014.14V1047.21L3092.27 1069.02L3093.33 1070.42L3092.27 1071.13L3050.37 1104.54L3047.91 1123.54V1123.89L3047.55 1124.24L3038.05 1139.02L3030.65 1174.55L3030.3 1175.95H3028.89L3008.47 1173.49L2975.37 1200.58H2975.02L2963.75 1206.2L2990.16 1246.31L2990.51 1246.66V1247.01L2999.31 1359.22V1359.57L2998.96 1360.28L2975.72 1385.6L2991.22 1397.56L2991.92 1397.92L2991.57 1398.97L2985.58 1428.87L2998.96 1443.29L2999.31 1444V1444.35V1465.1L3015.16 1476.36L3016.22 1477.06L3015.86 1478.12L3008.12 1498.52V1498.87H3007.77L2983.82 1527.72L2981.71 1548.47H3020.79H3021.15L3021.5 1548.82L3038.4 1562.19L3056.71 1549.88L3057.77 1549.18L3058.82 1550.23L3069.03 1563.25L3069.74 1564.3L3083.12 1584.35L3083.82 1585.76L3082.77 1586.46L3067.62 1596.31V1613.9L3084.17 1615.31L3098.26 1605.46L3099.67 1604.75L3100.37 1606.16L3117.62 1639.23L3117.98 1639.58V1639.93L3116.57 1679.33L3138.75 1691.99L3139.81 1692.34L3139.46 1693.75L3129.6 1734.91L3141.92 1762.7L3170.09 1771.14L3171.85 1771.49L3171.15 1773.25L3149.67 1823.2L3145.44 1885.81L3166.92 1908.68L3190.51 1890.74L3190.86 1890.39H3191.22L3226.43 1888.98L3239.1 1866.82L3240.16 1865.06L3241.57 1866.47L3260.58 1885.46L3285.23 1856.62L3323.96 1773.25L3324.31 1772.55H3325.02L3351.08 1767.97H3351.43L3351.78 1768.33L3402.48 1788.38L3403.19 1788.73V1789.43L3414.46 1822.15L3444.39 1808.43L3445.09 1808.07L3446.15 1808.78L3464.81 1821.44L3465.16 1821.79V1822.15L3499.31 1899.18L3543.33 1980.79L3571.15 1962.85V1962.5H3571.5L3600.37 1950.89H3601.08L3601.78 1951.24L3623.96 1969.18L3635.93 1958.63L3636.99 1957.57L3638.05 1958.63L3655.65 1974.81L3671.85 1958.63L3672.2 1958.28H3672.91L3713.4 1959.69H3713.75L3714.1 1960.04L3739.46 1979.74L3789.1 1961.09L3789.81 1960.74L3790.51 1961.44L3807.06 1975.16L3875.37 1943.86L3876.08 1943.5L3876.43 1943.86L3896.15 1948.08L3917.62 1939.99L3914.81 1923.81V1922.75L3915.86 1922.4L3968.68 1894.96L3955.3 1857.67L3954.95 1856.62L3955.65 1855.91L3973.61 1836.92L3966.22 1818.63L3932.41 1796.47L3931 1795.76L3931.71 1794.71L3949.67 1760.23L3916.57 1737.37L3915.16 1736.31L3916.22 1735.26L3931.71 1717.32V1641.34V1640.28L3932.77 1639.93L3997.55 1615.31L4000.02 1586.11L4000.37 1584.7H4001.43L4040.16 1582.24L4048.61 1558.32L4047.55 1533.7V1532.64L4048.26 1532.29L4066.92 1523.5L4052.84 1474.25L4027.13 1455.96L4026.07 1455.61L4026.43 1454.55L4043.33 1394.4L4020.09 1331.78L4019.74 1331.08L4020.09 1330.38L4033.12 1313.14L4033.82 1312.44L4034.88 1312.79L4080.65 1328.27L4109.88 1321.93L4120.09 1303.99L4120.44 1303.64L4121.15 1303.29L4155.65 1298.37L4161.99 1276.21L4104.24 1156.96V1156.61V1156.25L4110.23 1127.06V1126.35L4110.58 1126L4149.31 1098.92L4134.88 1070.77L4134.17 1069.72L4134.88 1069.02L4172.2 1034.19L4172.91 1033.84H4173.26L4206.36 1030.32L4225.37 1008.86L4228.89 971.928L4207.41 952.581L4206.71 952.23V951.526L4205.65 927.606L4191.92 906.852L4191.22 905.796L4192.27 904.741L4208.47 889.615L4190.86 868.509L4189.81 867.454L4190.86 866.399L4234.17 827.001V826.649H4234.53L4253.89 818.559L4268.33 797.453L4241.22 741.17H4207.06L4206.71 740.819L4179.6 729.21L4179.24 728.859L4178.89 728.507L4164.81 692.275L4164.45 691.571L4165.16 690.868L4219.74 627.198V595.891L4148.61 542.423Z" fill="#D3C9A8" fill-opacity="0.5"/>
<path fill-rule="evenodd" clip-rule="evenodd" d="M4789.81 555.79L4781.71 465.386L4756.71 451.315L4815.86 410.159L4807.41 382.721L4697.2 373.575L4683.82 391.164L4653.54 393.626L4650.37 416.842L4626.08 415.435V382.721L4653.54 373.575L4664.46 351.062L4658.82 291.614L4647.91 287.393L4634.53 295.835L4633.47 274.026L4607.77 284.227L4590.16 264.176L4596.85 231.462L4618.68 250.457L4631.01 240.608L4649.32 260.659L4660.23 235.683L4657.77 205.431L4677.84 188.898L4713.05 192.064L4771.5 147.742L4757.41 131.209L4786.64 135.43L4785.93 106.937L4753.89 112.565L4744.74 92.5146L4702.13 84.424L4719.03 63.3181L4697.2 47.4887L4717.27 33.418L4692.27 0.703857L4621.15 42.5639L4616.92 76.6852L4597.55 102.012L4645.44 121.008L4619.39 132.616L4542.27 111.862L4452.84 171.31L4319.03 243.774L4283.12 302.519L4286.29 320.107L4261.99 326.79L4227.84 357.746L4252.13 387.646L4273.61 380.962L4306.36 399.254L4303.19 431.968L4272.91 435.486L4252.84 447.094L4210.23 420.36V474.532L4166.57 507.246L4150.02 539.609L4222.2 593.78L4222.91 594.484V595.187V627.55V628.253L4222.2 628.605L4168.33 691.923L4181.71 726.748L4207.41 738.004H4242.27H4242.98L4243.68 738.708L4257.06 767.201L4279.6 770.718H4280.3L4280.65 771.422L4295.44 796.749L4325.37 782.327L4326.08 781.975L4326.43 782.327L4354.95 791.473L4376.43 772.125L4376.78 771.774H4377.13L4410.58 769.311L4435.23 743.632L4430.65 718.657L4430.3 717.602L4431.71 716.898L4456.71 709.159L4463.4 685.591L4463.75 684.536H4464.81L4485.94 682.073L4492.63 662.023V661.319L4493.68 660.968L4532.77 651.822L4542.63 633.882L4543.33 633.178H4544.03L4602.13 629.66H4603.54L4603.89 630.716L4617.27 667.651L4657.77 655.339H4658.12H4658.47L4702.84 656.395L4738.4 553.679L4739.1 552.272L4740.51 552.976L4762.34 564.232L4789.81 555.79Z" fill="#D3C9A8" fill-opacity="0.5"/>
<path fill-rule="evenodd" clip-rule="evenodd" d="M4325.72 1366.96L4348.26 1352.19L4363.4 1339.88L4384.17 1334.6L4377.48 1292.03L4414.46 1280.43L4442.63 1255.45L4468.68 1254.4L4449.67 1282.19L4467.98 1298.01L4494.74 1267.76L4501.43 1220.27L4525.72 1211.13L4544.74 1185.8L4524.67 1171.03L4507.06 1192.49L4488.75 1175.25L4483.82 1089.07L4467.98 1038.06L4472.91 1000.42L4503.89 956.099L4521.5 955.395L4529.95 930.068L4565.86 979.667L4590.87 975.446L4592.63 956.802L4586.64 919.163L4580.3 892.781L4556.01 879.062L4555.65 878.71L4555.3 878.007L4550.72 854.087L4535.23 839.664L4510.23 841.775L4508.82 842.127L4508.47 840.72L4493.68 801.674L4472.2 797.101H4471.5L4471.15 796.749L4436.64 746.447L4412.34 772.125L4411.99 772.477H4411.29L4378.19 774.94L4356.36 794.287L4355.65 794.638H4354.6L4326.08 785.493L4295.44 800.267L4294.03 800.97L4293.33 799.563L4278.54 773.532L4258.82 770.718L4271.5 797.101L4271.85 797.804L4271.5 798.508L4256.36 820.669L4256.01 821.021L4255.65 821.373L4235.94 829.463L4194.03 867.806L4211.99 888.56L4212.7 889.967L4211.64 891.022L4195.09 906.148L4208.47 926.199L4208.82 926.551V926.902L4209.88 950.822L4231.71 970.169L4232.06 970.521V971.225L4228.54 1009.92V1010.27L4228.19 1010.62L4208.47 1032.78L4208.12 1033.14L4207.41 1033.49L4173.96 1036.65L4138.05 1070.42L4152.48 1098.56L4153.19 1099.97L4152.13 1100.67L4113.05 1128.11L4107.41 1156.25L4164.1 1273.74L4190.16 1256.15L4190.86 1255.8L4191.57 1256.15L4250.72 1275.85L4251.78 1276.21V1276.91L4258.47 1309.97V1310.33V1311.03L4244.39 1336.36L4254.95 1357.81L4278.54 1340.58L4278.89 1340.23H4279.25H4309.53H4310.58L4310.94 1340.93L4325.72 1366.96Z" fill="#D3C9A8" fill-opacity="0.5"/>
<path fill-rule="evenodd" clip-rule="evenodd" d="M4371.5 2380.75L4368.33 2478.19L4385.94 2508.09L4317.27 2514.07L4294.74 2563.31L4358.12 2628.74L4359.88 2653.02L4395.09 2619.6L4455.3 2620.3L4498.96 2585.12L4524.67 2533.41L4537.34 2391.3L4554.95 2316.73L4543.33 2229.84L4526.08 2224.92L4525.02 2224.56V2223.86L4520.79 2202.76L4492.27 2182.35L4460.23 2206.62L4479.25 2227.03L4509.53 2229.49L4510.94 2229.84V2231.25L4503.89 2278.38V2279.79H4502.48L4481.01 2280.5L4484.18 2310.75V2311.8L4483.47 2312.15L4452.48 2332.56V2332.91H4451.78L4401.08 2336.43L4388.4 2352.96L4398.26 2372.66L4399.32 2374.42L4397.2 2374.77L4371.5 2380.75Z" fill="#D3C9A8" fill-opacity="0.5"/>
<path fill-rule="evenodd" clip-rule="evenodd" d="M4343.68 2275.57L4365.86 2311.8L4357.41 2338.54L4371.15 2377.58L4394.74 2372.31L4385.23 2353.66L4384.88 2352.61L4385.23 2351.9L4398.96 2333.96L4399.67 2333.26H4400.37L4451.43 2329.74L4481.01 2310.04L4477.84 2279.44L4477.48 2277.68H4479.24L4501.08 2276.63L4507.41 2232.66L4478.19 2230.19H4477.84L4477.13 2229.49L4456.71 2207.33L4455.65 2205.92L4457.06 2205.22L4491.22 2179.19L4492.27 2178.84L4492.98 2179.19L4522.91 2200.65L4523.61 2201V2201.7L4527.84 2222.1L4542.98 2226.68L4550.72 2127.83L4539.81 2096.87L4491.22 1998.38L4475.37 1979.03L4461.29 1909.74L4451.43 1886.87L4448.26 1883L4411.99 1867.88L4399.32 1853.1L4410.23 1831.29L4383.47 1820.39L4327.48 1810.19L4283.82 1833.05L4268.68 1898.83L4250.37 1875.61L4229.6 1902.35L4211.99 1851.34L4175.02 1873.86L4144.03 1868.93L4145.79 1839.73L4185.94 1739.13L4196.15 1638.88L4207.77 1590.33L4197.55 1550.23L4210.94 1514.35L4205.3 1476.01L4289.81 1393.34L4316.57 1398.27L4319.03 1388.07L4311.29 1376.46L4323.26 1368.72L4308.82 1343.39H4279.95L4255.3 1361.33L4253.89 1362.39L4252.84 1360.98L4241.22 1337.06L4240.86 1336.36L4241.22 1335.65L4255.3 1309.98L4248.96 1278.67L4191.22 1259.32L4164.81 1276.91L4158.47 1300.13L4158.12 1301.18H4157.06L4122.56 1306.46L4112.34 1324.05L4111.99 1324.75H4111.29L4081.01 1331.43H4080.65H4079.95L4035.23 1315.96L4023.26 1331.43L4046.5 1393.7V1394.4V1394.75L4029.6 1454.2L4055.3 1471.79L4055.65 1472.14V1472.84L4070.09 1524.2L4070.44 1525.26L4069.39 1525.96L4050.72 1534.75L4051.78 1558.67V1559.02V1559.38L4042.63 1584.35L4042.27 1585.06H4041.22L4003.19 1587.87L4000.72 1616.71L4000.37 1617.77L3999.67 1618.12L3934.88 1642.75V1717.67V1718.37L3934.53 1718.73L3919.74 1735.96L3952.48 1758.48L3953.54 1759.18L3953.19 1760.59L3935.23 1794.71L3968.33 1816.52H3968.68V1817.22L3976.78 1836.92L3977.13 1837.62L3976.43 1838.33L3958.82 1857.32L3971.5 1893.55L4023.96 1866.12L4025.02 1865.76L4025.72 1866.47L4042.98 1885.11L4043.68 1885.82L4043.33 1886.87L4017.63 1942.8L4020.44 1969.54V1970.59L4019.74 1971.29L4000.37 1982.2L4001.43 2004.36H4044.74H4045.79L4046.15 2005.06L4065.86 2034.61L4087.34 2033.2L4122.56 2000.84L4128.19 1976.57L4128.54 1975.52H4129.95H4156.36L4164.46 1958.98L4165.16 1957.93L4166.22 1958.28L4184.88 1961.09H4185.94L4186.29 1962.15L4203.54 2015.26L4203.89 2016.32L4203.19 2017.02L4191.57 2028.63L4191.22 2028.98H4190.51L4147.91 2035.67L4158.82 2058.53L4159.17 2059.24L4158.47 2060.29L4141.57 2078.58L4136.99 2102.5V2102.85L4136.64 2103.21L4111.64 2132.75L4122.56 2146.12L4123.26 2146.82L4122.56 2147.88L4105.3 2170.39V2197.83L4150.72 2220.34L4151.08 2220.7L4151.43 2221.05L4187.7 2271.35L4210.58 2249.89L4210.94 2249.19H4211.64L4260.58 2250.24H4260.94L4261.64 2250.6L4283.12 2267.83L4348.26 2246.02L4351.08 2244.97L4350.37 2247.78L4343.68 2275.57Z" fill="#D3C9A8" fill-opacity="0.5"/>
<path fill-rule="evenodd" clip-rule="evenodd" d="M900.372 1773.95L899.315 1792.6L909.527 1816.87L921.146 1814.41L929.597 1807.02L947.203 1815.46L946.498 1827.07L941.217 1837.97L947.203 1844.66L963.752 1850.29L970.442 1873.85L977.132 1903.05L969.738 1921.34L977.132 1936.47L996.498 1924.86L1004.95 1927.32L1010.58 1939.99L1014.81 1961.8L1027.48 1970.94L1042.63 1960.74L1056.71 1961.8L1083.47 1973.4L1082.77 1985.72L1088.4 1995.92L1101.78 1998.38L1112.7 1986.77L1124.67 1998.38L1139.46 2007.53L1136.29 2031.09L1139.46 2044.46L1154.6 2060.99L1167.27 2065.22L1179.6 2057.83L1189.81 2060.99L1197.2 2076.12L1228.19 2086.32L1241.57 2076.12L1254.95 2056.77L1231.36 2005.06L1229.24 2003.66L1228.89 2003.3L1228.54 2002.95L1223.61 1987.47L1223.26 1986.42L1223.96 1985.72L1236.99 1975.52L1239.81 1966.37L1233.47 1952.65L1200.37 1942.45L1184.88 1946.67L1177.13 1965.31L1176.43 1966.37H1175.37L1155.3 1964.26H1154.95L1154.6 1963.91L1136.29 1945.61L1102.48 1937.88H1101.78L1101.43 1937.17L1094.03 1923.1L1093.68 1922.05L1094.39 1921.34L1107.41 1907.27L1099.32 1898.48L1098.96 1898.13V1897.42L1099.32 1888.63V1887.57L1100.37 1887.22L1112.7 1883.7L1113.75 1862.95L1096.5 1863.65L1088.05 1869.63L1085.94 1870.69L1085.58 1868.23L1082.77 1843.95V1842.9L1083.82 1842.2L1091.57 1839.38L1092.63 1824.96L1084.53 1816.17L1084.17 1815.46V1815.11L1085.23 1780.99L1075.72 1767.62L1075.37 1767.27V1766.57V1721.19L1066.22 1701.14V1700.43V1700.08L1070.44 1681.79L1058.47 1668.07L1057.77 1670.18V1670.53L1051.43 1690.94V1691.29L1046.5 1700.43V1700.79L1046.15 1701.14L1010.58 1720.84L1001.43 1737.37V1737.72L1000.72 1738.07L976.076 1745.81L963.4 1747.57L938.4 1769.38L938.048 1769.73H937.696L901.428 1772.55L900.372 1773.95Z" fill="#D3C9A8" fill-opacity="0.5"/>
<path fill-rule="evenodd" clip-rule="evenodd" d="M836.639 740.115L809.174 741.17L774.667 753.834L773.259 781.271L776.428 793.935L766.569 802.377L758.822 783.03L745.442 782.327L724.667 762.276L698.611 778.809L681.005 780.92L682.414 804.84L694.738 824.538L695.09 825.242L694.738 825.946L685.231 855.494L689.808 869.916L706.005 861.826L706.71 861.474L707.414 861.826L718.329 867.102H719.034V867.806L727.484 882.58L742.273 880.469H742.977L743.681 880.821L753.188 889.615L761.287 890.319L765.512 884.69L766.217 883.987L767.273 884.339L783.118 889.615L783.822 889.967L784.174 891.022L785.231 903.686V904.038L784.879 904.389L780.653 912.48L784.879 920.571L803.188 921.274H804.245L804.597 922.329L806.71 931.827L817.273 933.234L819.034 933.586L818.681 934.993L815.512 950.471L826.076 970.521V970.873L827.836 988.461L841.569 981.426L841.921 981.074H842.625L868.681 983.185L884.526 949.767L884.879 949.415H885.231L910.231 930.42L910.583 930.068H910.935L926.428 924.792H926.78H927.132L949.315 925.143L960.583 915.998L939.456 888.208L925.724 885.746L924.667 885.394V884.69L917.977 863.233L909.526 863.936L908.118 876.952L907.766 878.71L906.357 878.359L899.315 876.952L898.611 876.6L898.259 875.896L893.329 867.102L886.639 869.213L885.583 884.339L885.231 886.097L883.47 885.746L874.315 883.635H873.259L872.907 882.932L867.625 871.675L841.217 872.027H840.512L840.16 871.323L829.597 855.846H804.597H803.893L803.188 855.142L796.498 846.7L795.794 845.644L796.498 844.941L839.104 793.231L836.639 740.115Z" fill="#D3C9A8" fill-opacity="0.5"/>
<path fill-rule="evenodd" clip-rule="evenodd" d="M1127.48 810.116L1125.37 796.397L1127.84 784.789L1116.92 769.663L1127.13 751.371L1158.12 713.029L1183.82 704.587L1198.96 678.556L1204.6 640.917L1198.61 630.716L1172.2 617.349L1171.15 616.997V615.59L1176.43 590.615L1146.15 550.162L1110.23 594.836L1091.92 594.132L1068.33 609.962L1051.78 609.258L1045.09 625.791L1037.7 640.214L1024.32 650.063L1031.71 664.485L1022.55 673.631L991.569 668.707L983.118 697.903L977.132 742.226L958.822 749.613L876.78 738.708L839.808 740.115L840.864 764.035L860.935 760.166L861.287 759.814L861.639 760.166L887.695 763.683H888.4L888.752 764.387L899.315 779.161L899.667 779.513V779.864L899.315 798.508V798.86L898.963 799.563L889.808 810.116L890.864 830.519V830.87L888.048 848.81V849.162L887.695 849.514L874.315 860.067L870.442 869.916L875.724 880.821L882.414 882.228L883.47 867.806V866.75L884.526 866.399L893.681 863.936L894.738 863.585L895.442 864.64L900.724 873.786L905.301 874.841L906.71 862.529V861.122H908.118L919.033 860.067H920.442L920.794 861.122L927.132 882.932L940.512 885.394H941.217L941.569 885.746L962.343 913.184L965.512 904.389L963.4 878.711V878.007V877.655L972.907 859.363L973.259 859.012L1007.41 822.076L1008.12 821.373L1008.82 821.724L1028.89 826.297L1029.6 826.649L1029.95 827.001L1036.29 838.609L1036.64 839.313L1036.29 839.665L1033.12 859.715V860.067L1032.77 860.77L1017.98 874.841L993.329 902.982L986.287 926.902L1003.19 926.551H1004.6V928.309V949.767L1017.98 954.34L1027.84 943.787L1028.19 943.084H1028.89H1041.22L1046.15 920.571V920.219L1046.5 919.867L1069.39 895.947L1063.75 886.801V886.449L1056.71 874.138L1056.36 873.786V873.082L1061.64 854.439V854.087L1061.99 853.735L1084.53 831.222L1086.29 819.262L1086.64 817.855L1088.4 818.207L1103.89 822.428L1113.4 824.187L1125.02 811.523L1125.37 811.172H1125.72L1127.48 810.116Z" fill="#D3C9A8" fill-opacity="0.5"/>
<path d="M1524.32 1405.65H1523.96L1523.61 1405.3L1476.08 1366.26L1458.82 1375.75L1458.47 1376.11H1458.12L1410.93 1370.48L1411.29 1370.13L1379.95 1353.95H1379.6L1379.24 1353.59L1350.72 1321.23L1313.4 1317.71L1302.13 1345.15L1328.54 1379.98L1328.89 1380.33V1380.68L1330.65 1405.65V1406.71L1329.6 1407.06L1286.29 1425.35V1440.13L1297.91 1450.33L1298.96 1451.38L1285.58 1469.68V1469.32L1273.61 1482.69L1257.41 1523.85V1524.2V1524.55L1243.68 1538.97L1235.23 1561.49L1234.88 1561.84L1220.09 1578.02L1219.74 1578.72L1219.03 1578.37L1206.36 1577.67L1206.01 1608.62L1220.09 1608.27L1221.5 1607.92V1632.54L1252.13 1633.95H1253.54L1253.89 1635.36L1255.3 1652.95L1268.33 1656.11H1269.03L1269.39 1657.17L1271.5 1665.96L1273.26 1678.27L1277.84 1684.61L1289.46 1681.44L1315.16 1650.84L1315.86 1650.48H1316.22L1345.44 1647.32L1364.1 1617.77L1365.16 1616.01L1366.57 1617.77L1379.95 1632.54L1391.92 1624.8L1396.5 1604.05V1603H1397.91L1430.3 1601.24L1439.1 1590.33L1441.57 1567.82V1567.47L1441.92 1567.12L1456.01 1550.58L1445.44 1530.18V1529.83V1529.48L1446.15 1512.94V1511.89L1447.2 1511.54L1481.71 1495.71L1521.85 1456.66L1548.26 1421.13L1553.54 1409.88L1524.32 1405.65Z" fill="#D3C9A8" fill-opacity="0.5"/>
<path fill-rule="evenodd" clip-rule="evenodd" d="M2776.43 2418.74L2847.2 2447.23L2912.69 2462.36L2926.07 2514.07L2973.61 2539.04L3007.06 2538.34L3054.6 2509.85L3091.57 2521.81L3129.95 2518.99L3140.16 2536.58L3162.34 2537.64L3169.74 2510.2L3191.57 2498.59L3167.62 2472.56L3191.22 2453.56L3182.06 2426.48H3226.43L3252.84 2404.32L3276.78 2407.84L3320.44 2349.79L3348.96 2347.68L3357.41 2333.61L3381.71 2323.76L3399.67 2301.25L3401.78 2277.68L3382.06 2264.31V2239.69L3424.31 2207.68L3438.4 2174.61L3475.37 2161.6L3473.26 2132.75L3451.07 2112.7L3425.37 2108.48L3404.24 2045.52L3390.51 2032.5L3404.24 2013.51L3402.13 1995.57L3386.64 2013.15L3372.91 2011.04L3365.16 2040.24L3294.38 2059.59L3282.06 2042.7H3265.86L3250.72 2034.61L3242.27 2054.66L3208.12 2065.92L3190.86 2059.59L3186.64 2079.99L3152.13 2084.21L3154.95 2100.74L3176.43 2118.68L3158.12 2140.49L3154.95 2171.45L3166.22 2197.48L3167.98 2192.2L3174.67 2149.29L3186.64 2128.53L3203.19 2130.64L3206 2148.23L3199.31 2186.57L3201.78 2223.86L3207.76 2244.62L3200.02 2265.02L3187.69 2276.27L3183.82 2283.31L3188.05 2296.68L3182.41 2310.75L3169.38 2314.27L3168.33 2328.69L3151.78 2356.13L3126.78 2363.86L3110.23 2386.38L3091.22 2384.62L3086.29 2412.76L3072.2 2428.59L3028.19 2447.94L3021.85 2468.69L2991.57 2478.89L2986.99 2460.95L2956 2454.97L2953.54 2432.11L2932.77 2405.72H2904.95L2847.2 2360L2828.89 2335.72L2800.02 2356.48L2783.12 2356.13L2784.17 2360.35L2774.67 2369.84L2778.19 2383.21L2765.51 2397.63L2776.43 2418.74Z" fill="#D3C9A8" fill-opacity="0.2"/>
<path fill-rule="evenodd" clip-rule="evenodd" d="M2371.5 2539.39L2479.25 2498.94L2517.63 2496.48L2524.32 2506.68L2582.06 2518.99L2586.29 2545.02L2608.12 2555.93L2669.03 2562.61L2693.33 2565.78L2706.01 2577.74L2725.02 2571.05L2742.63 2555.93L2755.3 2524.97L2734.18 2500L2736.64 2461.3L2750.37 2457.43L2751.08 2439.85L2768.68 2438.79L2773.61 2420.15L2761.64 2397.28L2774.67 2382.51L2771.15 2368.79L2780.65 2359.29L2778.54 2350.5L2752.84 2352.26L2689.46 2307.93L2685.58 2326.23L2607.77 2333.26L2602.48 2354.37L2586.64 2358.59L2588.4 2373.36L2566.92 2387.08L2565.87 2402.21L2550.72 2405.72L2525.02 2427.18L2464.81 2419.44L2428.19 2393.76L2411.64 2392.36L2400.37 2421.91L2357.77 2424.37L2360.23 2453.56L2385.94 2499.29L2367.27 2511.96L2371.5 2539.39Z" fill="#D3C9A8" fill-opacity="0.2"/>
<path fill-rule="evenodd" clip-rule="evenodd" d="M2139.1 2454.27L2141.92 2483.11L2168.68 2498.24L2169.39 2526.73L2196.15 2532.71L2207.06 2546.08L2237.34 2530.25L2243.33 2551L2262.7 2579.5L2292.98 2583.01L2302.13 2562.96L2342.27 2561.2L2369.03 2541.51L2364.81 2510.9L2382.41 2498.24L2357.77 2454.27L2355.3 2425.78L2332.41 2443.36L2311.29 2416.28L2317.98 2385.32L2307.06 2372.66L2273.61 2371.95L2250.72 2376.53L2232.77 2362.46L2231.71 2376.88L2214.1 2403.26L2182.41 2400.45L2158.12 2408.54L2148.26 2422.26L2164.1 2430.35L2168.68 2451.1L2139.1 2454.27ZM2320.09 2383.56L2338.75 2376.88L2352.48 2370.2L2375.37 2347.33L2370.09 2332.56L2374.31 2315.67L2368.33 2292.81L2383.82 2272.76L2391.57 2249.19L2368.33 2240.75L2363.4 2225.27L2381.36 2201.35L2371.98 2178.1L2376.99 2158.07L2400.02 2147.18L2411.64 2135.57L2386.64 2087.02L2390.58 2070.8L2362.7 2081.4L2327.48 2065.92L2287.7 2071.55L2272.2 2089.84L2230.65 2089.49L2229.95 2199.24L2246.15 2197.13L2249.31 2220.34L2270.44 2242.86L2277.13 2262.2L2297.91 2276.98L2282.41 2295.62L2294.74 2309.34L2288.75 2333.26L2273.61 2343.11L2273.27 2369.09L2308.32 2370.2L2320.09 2383.56Z" fill="#D3C9A8" fill-opacity="0.2"/>
<path fill-rule="evenodd" clip-rule="evenodd" d="M1927.48 2205.92L1967.98 2399.74L1989.81 2396.23L2004.6 2374.42L2019.03 2380.4L2023.26 2402.91L2069.03 2427.89L2105.3 2414.52L2124.31 2422.96L2138.05 2451.45L2164.81 2448.29L2160.93 2432.46L2143.33 2423.66L2155.65 2406.43L2181.71 2397.63L2211.99 2400.45L2228.19 2376.18L2229.95 2356.83L2251.08 2373.71L2270.44 2369.84L2271.5 2341L2287.34 2331.15L2292.62 2310.04L2279.6 2295.62L2294.74 2277.68L2275.41 2264.65L2268.26 2244.62L2246.8 2222.45L2243.94 2200.99L2230.65 2202.4L2211.29 2219.99L2174.67 2216.47L2163.05 2225.62L2150.72 2216.12L2118.68 2247.43L2092.62 2222.81L2088.4 2204.16L2068.33 2177.43L1985.23 2206.27L1967.27 2198.53L1958.47 2204.51L1944.39 2195.72L1927.48 2205.92Z" fill="#D3C9A8" fill-opacity="0.2"/>
<path fill-rule="evenodd" clip-rule="evenodd" d="M1864.46 2123.61L1907.03 2125.17L1890.16 2142.96L1926.43 2202.76L1944.39 2192.2L1958.47 2201L1966.92 2195.02L1985.58 2202.76L2069.39 2173.91L2091.22 2202.76L2095.44 2221.05L2118.68 2243.21L2150.72 2211.9L2163.05 2221.75L2173.96 2213.31L2210.23 2216.83L2227.49 2199.56V2089.49H2214.81L2193.33 2107.43L2183.12 2094.41L2185.58 2052.2L2124.67 2050.44L2113.4 2029.69L2081.01 2030.39L2074.67 2006.82L2054.95 1981.5L1949.67 1931.19V1966.37L1928.89 1978.33L1935.23 2002.6L1907.41 2000.84L1887.34 2009.28L1875.72 2030.04L1878.19 2090.89L1864.46 2123.61Z" fill="#D3C9A8" fill-opacity="0.2"/>
<path fill-rule="evenodd" clip-rule="evenodd" d="M2285.58 1762.7L2262.7 1746.52L2216.57 1772.9L2177.84 1744.4L2123.26 1743.35L2086.99 1719.43L2061.64 1712.04L2038.05 1729.98L2019.74 1788.02L1997.56 1785.21L1981.71 1795.76L1978.19 1813.7L1948.96 1830.59L1950.37 1845.01L1935.23 1863.65L1949.67 1878.78V1928.03L2056.71 1978.68L2077.49 2005.42L2083.12 2027.22L2115.16 2026.52L2126.43 2047.28L2189.1 2049.03L2186.29 2093.71L2193.68 2103.21L2213.75 2086.32L2272.56 2086.67L2287.7 2068.38L2329.6 2062.75L2364.46 2078.23L2392.27 2065.92L2393.68 2037.07L2423.26 2014.21L2427.13 2000.84L2401.43 1992.75L2382.41 1974.11L2379.6 1948.78L2411.99 1920.64L2413.05 1904.46L2391.22 1901.64L2367.63 1852.75L2285.58 1840.09V1815.81L2296.85 1802.09L2285.58 1762.7Z" fill="#D3C9A8" fill-opacity="0.2"/>
<path fill-rule="evenodd" clip-rule="evenodd" d="M2389.46 2156.32L2379.6 2160.54L2375.72 2177.78L2385.93 2202.05L2367.62 2225.97L2371.15 2238.28L2395.79 2247.08L2386.64 2273.81L2371.5 2293.16L2377.13 2315.32L2372.91 2331.85L2378.89 2347.68L2354.24 2372.66L2339.81 2379.69L2320.79 2386.38L2314.1 2415.57L2332.41 2439.14L2357.06 2420.15L2398.26 2418.74L2409.53 2389.19L2427.84 2390.6L2440.51 2364.22L2462.7 2356.13L2469.39 2341.35V2324.11L2490.51 2312.86L2489.1 2295.97L2480.65 2270.65L2476.43 2247.08L2458.12 2218.59L2466.22 2201L2452.48 2192.2L2428.89 2194.67H2402.48L2389.46 2156.32Z" fill="#D3C9A8" fill-opacity="0.2"/>
<path fill-rule="evenodd" clip-rule="evenodd" d="M3067.62 1566.76L3055.63 1576.94L3031.33 1581.87L3009.5 1591.72L3010.56 1615.99L3017.25 1632.87L3006.01 1659.23L3018.68 1679.28L3021.15 1709.18L3001.43 1749.68L2969.39 1769.73L2981.71 1789.76L2967.62 1809.11L2974.67 1833.03L3002.48 1842.17L3006.71 1861.87L2985.93 1883.68L2984.88 1898.45L2998.26 1903.75L3005.3 1921.65L2989.46 1937.48L2982.41 1962.1L2952.13 1944.16L2938.4 1914.61L2912.7 1926.22L2908.82 1951.2L2851.78 2014.89L2854.24 2044.44L2838.07 2050.39L2815.53 2001.85L2798.61 2022.25L2739.1 2024.72L2715.86 2069.06L2742.62 2110.92L2737.34 2135.54L2710.23 2137.98L2695.44 2166.12L2690.51 2243.86L2663.75 2241.4L2645.79 2249.84V2264.62L2688.75 2302.96L2753.19 2347.99L2780.65 2346.23L2782.06 2351.86L2798.61 2352.21L2829.6 2330.05L2849.31 2356.78L2906.01 2401.46H2934.53L2956.71 2429.95L2959.17 2451.41L2989.81 2457.39L2994.03 2473.92L3019.74 2465.48L3025.02 2447.89H2996.85L2989.81 2432.76L3004.24 2424.32L3021.85 2421.86L3057.06 2397.59L3069.74 2378.24L3095.79 2354.67L3101.78 2337.08L3117.27 2310.7L3135.93 2281.86L3152.13 2237.53L3164.1 2202L3151.43 2172.1L3154.6 2139.74L3171.5 2119.69L3151.43 2102.81L3147.91 2081.7L3183.82 2077.13L3188.4 2055.67L3208.47 2062.71L3240.16 2052.15L3249.31 2030.7L3266.92 2039.84H3283.82L3295.44 2056.02L3362.7 2038.08L3370.44 2007.83L3385.23 2010.29L3404.6 1988.48L3407.06 2012.76L3447.91 2019.09L3471.85 2002.2L3472.91 1970.9L3446.5 1952.25L3444.39 1911.45L3459.53 1899.84L3496.17 1898.78L3461.99 1824.21L3444.39 1811.9L3411.99 1826.67L3400.02 1791.14L3350.72 1771.44L3326.08 1775.67L3287.34 1858.68L3260.23 1890.34L3240.51 1870.64L3228.19 1892.45L3191.57 1893.86L3166.22 1912.85L3141.57 1886.82L3145.79 1822.45L3166.57 1773.2L3138.75 1764.76L3125.02 1734.86L3134.88 1694.06L3111.99 1681.39L3113.4 1640.59L3098.63 1609.28L3085.25 1618.78L3064.48 1617.37V1595.21L3079.62 1584.28L3067.62 1566.76ZM2913.05 2316.68L2929.24 2311.76L2922.55 2287.84L2943.33 2280.45L2957.77 2309.65L2993.33 2288.19L3006.01 2306.13L3016.22 2315.63L3030.3 2310.7H3049.67L3059.88 2326.88L3022.2 2374.37L2999.31 2358.19L2972.2 2360.65L2956.01 2350.45L2937.34 2336.73L2916.92 2334.97L2913.05 2316.68Z" fill="#D3C9A8" fill-opacity="0.2"/>
<path d="M2916.57 2319.14L2919.03 2331.81L2938.4 2333.92L2957.77 2347.64L2972.91 2357.13L2999.67 2354.67L3021.85 2369.8L3056.36 2326.18L3048.26 2313.16H3030.65L3015.86 2318.79L3003.89 2307.89L2992.63 2292.06L2956.36 2313.51L2941.57 2283.97L2926.43 2289.95L2933.12 2313.87L2916.57 2319.14Z" fill="#D3C9A8" fill-opacity="0.2"/>
<path d="M3038.4 1566.06L3020.09 1551.64H2978.19L2981.01 1526.66L3005.3 1497.11L3012.34 1478.12L2996.15 1466.86V1445.05L2982.06 1429.58L2988.4 1399.32L2971.15 1386.31L2996.15 1358.52L2987.34 1247.71L2959.53 1205.15L2973.61 1197.76L3007.41 1170.32L3027.84 1172.79L3034.88 1137.61L3045.09 1122.84L3047.56 1102.79L3089.1 1069.72L3071.15 1048.26V1014.49L3034.88 963.838L3029.95 937.807L3018.68 922.681L3020.09 907.555L2997.91 918.46L2972.91 937.807L2938.4 947.657L2925.02 971.225L2925.72 937.807L2995.44 865.695L3033.82 796.397L3051.43 734.487L2997.91 673.631L2947.55 671.872L2929.95 696.848L2909.88 700.365L2925.02 657.802L2884.17 652.525L2897.56 633.53L2872.2 612.424L2849.67 620.866L2813.75 674.335L2822.2 705.994L2783.82 708.808L2784.53 718.657L2798.61 739.763L2771.15 733.783L2757.06 747.15L2725.02 741.17L2720.79 727.1L2675.72 727.803L2676.43 753.834L2622.2 761.221L2585.23 790.417L2557.06 791.473L2535.94 809.765L2526.78 847.403L2544.39 879.062L2517.63 885.746L2446.5 874.138L2405.65 873.434L2392.98 895.947L2391.22 954.34L2417.27 979.667L2429.6 1008.86H2393.68L2362.7 951.174L2340.16 952.23L2340.51 955.395L2360.94 999.014L2337.7 1002.88L2333.12 1028.91L2352.84 1071.13L2347.55 1092.23L2300.37 1113.34L2294.39 1136.91L2325.02 1176.66L2360.23 1185.45L2367.98 1229.42L2353.19 1266.36L2321.15 1275.15L2330.65 1298.01L2320.79 1328.27L2346.15 1361.33L2339.81 1421.13L2359.88 1449.27L2352.48 1492.19L2382.77 1514.7L2388.05 1546.71L2361.29 1583.65L2358.82 1616.71L2317.63 1669.13V1709.58L2352.13 1729.28L2345.44 1746.52L2314.46 1759.53L2288.75 1763.05L2300.02 1802.8L2288.75 1816.87V1837.27L2369.74 1849.94L2393.33 1898.83L2416.57 1901.64L2414.81 1922.05L2382.77 1950.19L2385.58 1972.7L2403.19 1989.94L2430.65 1998.73L2426.08 2016.32L2396.85 2038.48L2395.44 2068.03L2391.22 2086.67L2416.92 2136.27L2402.84 2149.99L2392.27 2154.92L2404.6 2191.85H2428.89L2453.19 2188.69L2470.09 2199.59L2461.64 2218.23L2479.6 2246.02L2483.82 2269.94L2492.27 2295.27L2493.68 2314.62L2472.55 2325.87V2342.41L2465.16 2358.59L2442.63 2366.68L2431.01 2391.65L2465.86 2416.63L2523.96 2424.02L2549.32 2402.91L2563.05 2399.74L2563.75 2385.32L2585.23 2371.95L2583.47 2356.13L2600.02 2351.9L2605.3 2330.45L2682.77 2323.41L2686.64 2305.82L2643.33 2267.13V2248.84L2663.75 2239.34L2688.05 2241.8L2692.98 2166.88L2708.82 2136.62L2735.23 2132.75L2740.16 2111.3L2713.05 2069.08L2738.4 2023L2797.59 2020.02L2815.86 1997.32L2839.08 2046.48L2851.24 2042.19L2849.09 2014.29L2905.6 1950.63L2910.61 1924.17L2939.93 1911.29L2954.24 1942.05L2981.36 1958.63L2987.34 1937.17L3002.17 1921.3L2996.5 1905.16L2982.06 1901.29L2983.47 1882.65L3003.54 1861.19L3000.37 1845.01L2972.2 1836.22L2964.1 1809.48L2978.19 1790.49L2965.16 1768.33L2998.96 1747.57L3017.63 1711.34L3015.16 1682.85L3002.48 1662.09L3015.16 1633.95L3008.82 1617.77L3007.77 1591.04L3031.36 1580.48L3055.65 1575.21L3065.86 1563.95L3057.41 1553.4L3038.4 1566.06Z" fill="#D3C9A8" fill-opacity="0.2"/>
<path fill-rule="evenodd" clip-rule="evenodd" d="M4158.47 2320.95L4183.47 2360.35L4210.23 2383.56L4267.27 2356.13L4274.67 2332.56L4317.27 2285.07L4340.51 2274.52L4346.85 2249.89L4282.41 2271.35L4259.88 2253.41L4212.34 2252.35L4188.75 2274.87L4158.47 2320.95Z" fill="#D3C9A8" fill-opacity="0.2"/>
<path fill-rule="evenodd" clip-rule="evenodd" d="M3703.19 2172.15L3760.23 2142.96L3803.54 2158.08L3856.36 2149.64L3933.12 2225.62L4028.54 2324.47L4066.22 2309.34L4089.81 2320.25L4106.36 2311.8L4138.4 2322L4155.3 2319.54L4185.58 2273.81L4148.96 2223.16L4102.48 2199.59V2169.34L4119.39 2146.82L4107.77 2132.4L4134.17 2101.45L4138.4 2077.18L4155.3 2058.88L4143.33 2033.56L4189.46 2025.82L4200.02 2015.62L4183.47 1963.91L4166.92 1961.44L4158.12 1978.68H4131L4125.37 2002.25L4088.75 2036.02L4064.1 2037.78L4044.03 2007.53H3998.61L3997.2 1980.44L4017.27 1968.83L4014.46 1942.1L4040.16 1886.52L4024.32 1869.63L3918.33 1924.51L3921.15 1942.1L3896.5 1951.24L3876.43 1947.02L3806.71 1978.68L3789.46 1964.26L3738.75 1983.25L3712.7 1962.85L3673.61 1961.44L3655.65 1979.03L3636.64 1961.8L3623.96 1973.4L3600.37 1954.41L3572.55 1965.31L3545.44 1983.25L3581.01 2006.82L3570.09 2022.3L3585.93 2038.13L3615.86 2021.6L3630.3 2046.92L3653.89 2041.3L3657.06 2086.32L3681.01 2099.69L3667.62 2119.04L3703.19 2172.15Z" fill="#D3C9A8" fill-opacity="0.2"/>
<path fill-rule="evenodd" clip-rule="evenodd" d="M4450.37 1884.06L4499.67 1910.79L4515.51 1952.3L4539.81 1983.25L4569.03 2030.04L4590.16 2064.51L4614.46 2082.8L4621.85 2104.61L4628.54 2123.61L4658.82 2138.03L4662.69 2167.93L4693.68 2207.33L4696.15 2173.21L4692.27 2147.18L4716.57 2145.42L4725.72 2141.2L4748.26 2153.16L4729.95 2114.46H4702.84L4674.67 2102.15L4641.92 2078.58L4621.15 2025.11L4609.17 1990.99L4634.53 1976.57L4681.36 1974.11L4575.72 1903.05L4501.43 1836.22L4466.92 1771.84L4420.09 1739.13L4398.61 1711.69L4383.47 1718.37L4379.95 1734.2L4407.77 1753.55L4422.91 1776.06L4414.46 1786.97L4401.08 1783.45L4396.85 1802.8L4423.61 1822.85L4450.37 1884.06Z" fill="#D3C9A8" fill-opacity="0.2"/>
<path fill-rule="evenodd" clip-rule="evenodd" d="M448.963 1517.16L456.005 1530.18L454.949 1561.14L476.076 1572.39L491.568 1582.59L506.357 1572.39L528.54 1573.45L551.075 1559.73L553.892 1540.73L580.653 1544.25L595.442 1540.03L606.005 1561.14L628.54 1568.87L633.47 1564.65L634.878 1539.33L619.737 1528.07L618.681 1511.18L609.526 1502.39L594.737 1491.84L596.498 1466.16L567.977 1444L565.16 1427.11L553.892 1421.48V1410.23L549.667 1402.49L533.47 1401.43L530.301 1408.82L522.202 1410.23L517.273 1404.25H510.583L500.019 1413.75V1432.04L493.681 1440.83L499.315 1445.05L500.019 1456.31L486.991 1455.61L482.061 1463.7L485.583 1480.23L448.963 1517.16Z" fill="#D3C9A8" fill-opacity="0.2"/>
<path fill-rule="evenodd" clip-rule="evenodd" d="M394.385 1348.32L382.414 1363.09L376.428 1372.24L378.893 1384.9L391.569 1390.88L389.808 1409.88L421.85 1429.93L422.554 1466.86L447.554 1514.35L482.061 1479.17L479.245 1462.64L485.23 1452.44L496.85 1453.14L496.498 1446.81L489.104 1441.53L496.85 1430.98V1413.75L473.963 1389.83L450.723 1385.25L433.822 1374L429.597 1359.57L421.146 1358.17L411.991 1363.44L394.385 1348.32Z" fill="#D3C9A8" fill-opacity="0.2"/>
<path fill-rule="evenodd" clip-rule="evenodd" d="M416.217 1267.06L402.485 1273.04L395.794 1286.41L385.583 1288.87L384.879 1305.4L399.316 1313.84L395.794 1345.15L412.696 1359.57L421.147 1355L432.062 1356.76L436.287 1371.89L451.78 1382.09L475.372 1387.01L498.611 1410.93L509.175 1401.08H518.682L523.611 1407.06L528.189 1406.01L530.654 1400.03L520.09 1385.96L519.034 1371.89L507.766 1368.02L503.893 1360.28V1348.32L498.611 1341.28V1316.31L461.992 1268.47L416.217 1267.06Z" fill="#D3C9A8" fill-opacity="0.2"/>
<path fill-rule="evenodd" clip-rule="evenodd" d="M445.091 1153.44L428.541 1137.61L429.95 1122.48L414.105 1118.97L404.95 1141.48L371.499 1169.97L373.964 1188.62L391.569 1187.56L404.95 1198.47L409.879 1222.03L425.02 1220.27L442.626 1223.44V1235.4L420.795 1263.89L462.344 1265.65L513.753 1227.66L509.527 1220.63V1211.48L516.217 1204.8L525.02 1199.52L524.316 1192.49L513.753 1191.78L507.415 1196.71L496.851 1190.73L490.513 1179.12L490.161 1168.21L495.795 1158.72L470.091 1156.61L445.091 1153.44Z" fill="#D3C9A8" fill-opacity="0.2"/>
<path fill-rule="evenodd" clip-rule="evenodd" d="M540.865 1013.79L537.344 1020.47L509.527 1036.3L495.442 1058.81L480.301 1089.77L478.541 1114.74L482.766 1129.87L471.851 1143.24V1153.79L497.907 1155.55L508.822 1150.98L530.301 1151.33L541.921 1140.42L559.175 1141.13L565.865 1164.7L572.203 1160.83L584.879 1162.94L590.865 1171.38L620.794 1168.57L638.4 1156.96L658.118 1128.46L659.175 1121.78L645.09 1104.9L642.977 1089.42L609.175 1083.44L592.273 1071.13L570.442 1030.32L563.752 1014.14L557.414 1010.62L544.034 1014.14L540.865 1013.79Z" fill="#D3C9A8" fill-opacity="0.2"/>
<path fill-rule="evenodd" clip-rule="evenodd" d="M464.809 1267.41L501.78 1315.25V1340.23L507.062 1347.26V1359.57L509.879 1365.55L520.794 1369.07L537.696 1369.77L543.33 1360.28L575.372 1334.25L578.893 1308.22L564.456 1295.2L557.414 1279.02L558.118 1252.29L515.865 1230.12L464.809 1267.41Z" fill="#D3C9A8" fill-opacity="0.2"/>
<path fill-rule="evenodd" clip-rule="evenodd" d="M576.781 1337.41L545.443 1362.39L540.161 1372.24H522.203L523.259 1384.9L533.471 1398.27L551.428 1399.68L556.71 1408.82V1419.73L567.978 1425L570.795 1442.59L598.259 1463.7L611.64 1457.72L615.161 1449.27L613.048 1435.91L609.175 1427.82L614.809 1416.21L639.105 1404.95L652.837 1392.29L653.541 1377.16L650.02 1366.61L637.344 1356.41L633.119 1345.5L621.499 1344.1L602.133 1352.89L589.105 1351.48L576.781 1337.41Z" fill="#D3C9A8" fill-opacity="0.2"/>
<path fill-rule="evenodd" clip-rule="evenodd" d="M656.005 1390.53V1393.69L640.864 1407.41L617.273 1418.32L612.343 1427.11L616.217 1435.2L618.329 1450.33L614.104 1459.83L599.667 1466.51L598.259 1490.43L611.639 1499.93L621.85 1509.78L622.907 1526.66L636.991 1537.22L657.414 1533.7L698.611 1512.24L703.893 1505.2L704.245 1471.08V1470.73L708.47 1447.16L726.428 1425.35L711.991 1409.52L703.54 1415.15L695.09 1417.61L682.414 1409.88L672.555 1391.58L656.005 1390.53Z" fill="#D3C9A8" fill-opacity="0.2"/>
<path fill-rule="evenodd" clip-rule="evenodd" d="M561.287 1252.29L560.583 1278.67L567.273 1293.44L582.062 1306.81L578.541 1334.6L589.808 1348.67L602.132 1349.72L620.794 1340.93L633.118 1342.34L634.175 1334.95L642.625 1323.34L659.527 1305.05V1293.44L670.09 1282.89L667.977 1262.49L655.301 1254.4L650.02 1243.49L624.668 1244.55L617.625 1252.99L594.386 1238.92L588.048 1236.81L561.287 1252.29Z" fill="#D3C9A8" fill-opacity="0.2"/>
<path fill-rule="evenodd" clip-rule="evenodd" d="M661.639 1307.16L645.09 1325.1L636.991 1336.36L635.935 1343.74L640.16 1354.65L652.836 1365.2L656.358 1376.81V1387.36L674.315 1388.42L684.879 1408.12L695.442 1414.1L702.132 1412.34L712.696 1405.3L729.597 1424.3L740.16 1427.82L750.02 1427.46L782.062 1398.62L799.315 1386.66L788.752 1358.17L755.653 1302.94L735.935 1302.24L727.836 1308.92L719.034 1303.29L711.287 1297.66L706.71 1301.18L691.921 1304.7L683.822 1301.18L677.484 1306.46L661.639 1307.16Z" fill="#D3C9A8" fill-opacity="0.2"/>
<path fill-rule="evenodd" clip-rule="evenodd" d="M650.371 1240.33L662.695 1223.44V1197.76L650.019 1190.37L640.512 1175.6L638.4 1160.83L621.498 1171.38L589.104 1174.55L583.118 1165.75L572.907 1163.99L564.104 1169.27L556.709 1144.29L543.329 1143.59L531.357 1154.49L509.526 1154.14L499.315 1158.36L493.329 1168.92L493.681 1178.41L498.963 1188.62L507.061 1193.19L512.695 1188.62L526.78 1189.67L528.54 1200.93L518.329 1207.26L512.695 1212.54V1219.92L516.921 1226.96L559.878 1249.82L587.695 1233.64L595.794 1236.1L616.921 1249.12L622.907 1241.73L650.371 1240.33Z" fill="#D3C9A8" fill-opacity="0.2"/>
<path fill-rule="evenodd" clip-rule="evenodd" d="M641.217 1158.36L643.682 1174.55L652.484 1188.62L665.865 1195.65V1224.5L652.836 1242.08L657.766 1252.64L670.794 1260.73L673.259 1283.94L662.696 1294.5V1304.35L676.78 1303.29L683.118 1297.31L692.273 1301.53L705.653 1298.37L710.935 1293.79L727.484 1305.05L734.527 1299.07L756.005 1299.77L763.752 1288.17L769.034 1273.04L763.752 1268.11L754.245 1255.8L746.851 1232.23L752.484 1215.35L769.738 1195.65L780.301 1185.8L782.766 1173.84L769.034 1158.01H736.287L700.02 1134.09L700.724 1120.37L696.498 1118.26L692.625 1122.48L661.639 1126.71L661.287 1129.87L641.217 1158.36Z" fill="#D3C9A8" fill-opacity="0.2"/>
<path fill-rule="evenodd" clip-rule="evenodd" d="M780.301 1190.02L771.851 1197.76L754.949 1217.11L750.02 1232.59L757.062 1254.75L766.217 1266.36L772.555 1271.98L766.569 1289.57L758.47 1301.53L790.513 1355.35L813.4 1341.99L841.921 1340.93L873.259 1321.93L866.569 1303.99L836.287 1264.95L821.146 1258.27L808.118 1244.55L817.273 1231.88L820.794 1217.81L813.752 1210.78L797.555 1224.14L781.358 1206.91L780.301 1190.02Z" fill="#D3C9A8" fill-opacity="0.2"/>
<path fill-rule="evenodd" clip-rule="evenodd" d="M821.85 1213.94L824.315 1217.81L820.09 1233.29L811.991 1244.19L822.555 1255.45L838.048 1262.13L869.386 1302.24L876.076 1320.88L886.287 1319.12L894.034 1307.86L913.4 1306.46L921.85 1313.84L933.47 1307.16L936.991 1266.36L918.329 1256.15L916.921 1238.21L908.118 1230.48L894.034 1235.4L848.259 1211.13L821.85 1213.94Z" fill="#D3C9A8" fill-opacity="0.2"/>
<path fill-rule="evenodd" clip-rule="evenodd" d="M867.273 1217.81L894.386 1231.88L909.175 1226.96L919.738 1236.81L920.62 1253.92L939.934 1264.65L936.64 1306.46L991.921 1306.81L999.316 1301.88L1019.03 1302.59L1024.32 1317.71L1039.46 1324.4L1052.13 1337.41L1073.26 1315.95L1123.61 1317.01L1124.32 1285L1134.53 1274.09L1123.61 1263.19L1096.85 1270.23L1056.36 1246.31L1032.06 1201.98L996.147 1180.17L940.865 1177.36L921.851 1190.73L900.02 1191.78L893.33 1201.98L867.273 1217.81Z" fill="#D3C9A8" fill-opacity="0.2"/>
<path fill-rule="evenodd" clip-rule="evenodd" d="M784.878 1171.73L808.47 1160.83L804.949 1149.57L812.695 1107.71L834.526 1109.12L860.583 1084.14L857.061 1054.24L829.245 1053.89L801.428 1028.91L784.174 1029.97L763.047 1013.08L759.526 997.959L744.737 987.406L739.104 991.276L736.287 1006.4L697.554 1003.24L684.878 991.979L648.611 982.481L629.596 968.763L619.385 958.561L609.526 968.059L603.892 991.979L592.625 1009.22L567.272 1014.14L573.61 1028.91L594.737 1069.02L610.23 1080.27L645.794 1086.6L648.258 1103.49L662.343 1120.73L661.991 1123.54L691.216 1119.32L695.794 1114.75L703.892 1118.61L703.188 1133.04L737.343 1155.2L770.442 1154.85L784.878 1171.73Z" fill="#D3C9A8" fill-opacity="0.2"/>
<path fill-rule="evenodd" clip-rule="evenodd" d="M938.048 1175.6L917.273 1155.55L925.372 1126.35L910.231 1108.06L896.499 1108.76L862.344 1086.6L835.583 1112.28L815.16 1110.88L808.118 1149.22L812.344 1162.58L785.583 1174.54L783.118 1186.86L784.527 1205.85L797.555 1219.92L814.104 1206.56L819.034 1211.13L848.963 1207.96L864.104 1216.05L891.217 1199.87L898.259 1188.62L920.794 1187.91L938.048 1175.6Z" fill="#D3C9A8" fill-opacity="0.2"/>
<path fill-rule="evenodd" clip-rule="evenodd" d="M724.667 1759.18L740.513 1774.31L738.752 1791.19L734.527 1804.56L743.682 1821.09L762.344 1813L771.498 1794.36L782.414 1782.75L808.118 1787.67L822.555 1776.06L832.414 1775.36L840.16 1780.99L865.865 1779.58L885.231 1774.31L898.259 1771.49L898.963 1770.44L899.315 1759.18L897.907 1749.68L884.879 1730.69L886.991 1707.82L872.203 1689.18L866.921 1668.42L865.865 1656.11L853.893 1652.24L817.625 1632.54L816.921 1612.49L782.414 1606.51L744.034 1584.35V1571.34L739.104 1562.19L719.738 1559.73L693.682 1518.57L658.118 1536.51L638.048 1540.03L636.639 1565.36L630.301 1571.34L632.062 1591.74L642.625 1605.46L658.47 1608.62L687.344 1636.41L687.696 1658.22L674.667 1673.35L673.963 1686.72L684.175 1687.42L697.907 1681.44L698.963 1706.41L706.005 1716.62L723.611 1720.13L724.667 1759.18Z" fill="#D3C9A8" fill-opacity="0.2"/>
<path fill-rule="evenodd" clip-rule="evenodd" d="M869.034 1656.11L870.09 1667.72L875.02 1688.12L890.16 1706.77L888.048 1729.98L900.724 1748.27L902.484 1758.83L902.132 1769.38L936.639 1766.57L961.991 1744.76L975.372 1742.65L999.315 1735.26L1008.12 1718.73L1044.03 1698.68L1048.61 1689.88L1054.95 1669.48L1057.06 1660.33L1039.46 1634.65L1031.71 1627.97L1023.61 1633.6L1014.1 1634.3L1000.02 1613.9L995.442 1617.07L977.132 1636.41L966.569 1642.74L951.78 1639.58L930.653 1620.94L916.921 1610.73L882.766 1614.96L874.315 1626.92L873.963 1632.19L881.71 1636.06L878.893 1651.89L869.034 1656.11Z" fill="#D3C9A8" fill-opacity="0.2"/>
<path fill-rule="evenodd" clip-rule="evenodd" d="M820.09 1611.79L820.442 1630.78L854.949 1649.43L867.273 1653.3L876.076 1649.78L878.188 1637.82L870.442 1633.95L871.146 1625.86L881.71 1611.79L917.625 1607.57L932.766 1618.47L952.836 1636.41L965.512 1639.58L975.372 1633.95L993.681 1614.6L997.907 1611.44L984.527 1592.79L990.512 1586.11L989.104 1571.69L961.639 1569.93L945.794 1547.42L925.372 1546.36L917.977 1528.07L896.85 1502.74L893.681 1506.26L890.16 1525.26L884.526 1534.05L850.724 1522.44V1556.56L843.329 1565L850.019 1577.32L846.85 1586.46L820.09 1611.79Z" fill="#D3C9A8" fill-opacity="0.2"/>
<path fill-rule="evenodd" clip-rule="evenodd" d="M749.315 1430.63L740.16 1430.98L729.245 1427.11L711.287 1448.57L707.414 1471.08L706.71 1506.61L701.076 1514.35L696.499 1516.81L722.203 1557.27L741.217 1560.08L747.203 1570.98V1582.24L783.118 1603.35L817.977 1609.33L844.034 1584.7L846.498 1577.67L840.512 1563.6L847.555 1555.51V1521.39L835.231 1520.68L825.02 1500.98L804.949 1497.47L797.203 1504.15L783.47 1481.99L781.71 1458.42L759.175 1457.36L749.315 1430.63Z" fill="#D3C9A8" fill-opacity="0.2"/>
<path fill-rule="evenodd" clip-rule="evenodd" d="M800.724 1389.47L784.175 1401.08L752.484 1429.58L761.639 1455.25H784.527L786.639 1480.93L797.907 1499.58L804.245 1493.95L827.132 1498.17L836.287 1517.52L849.667 1518.57L883.118 1530.18L886.991 1524.2L890.865 1505.56L895.442 1499.58L902.484 1487.97L902.836 1479.88L893.329 1474.6L891.569 1463.7L885.583 1460.53L881.358 1466.16L858.822 1466.86L854.597 1474.25L843.329 1472.14L829.949 1448.57L826.78 1415.5L800.724 1389.47Z" fill="#D3C9A8" fill-opacity="0.2"/>
<path fill-rule="evenodd" clip-rule="evenodd" d="M906.005 1479.88L905.301 1489.37L898.611 1500.28L920.794 1526.66L923.611 1534.4L940.16 1529.48L961.287 1527.01L963.752 1509.43L975.724 1502.74L997.907 1497.11L1000.02 1478.82L994.033 1446.46L952.132 1433.09L928.188 1439.78L926.076 1465.45L906.005 1479.88Z" fill="#D3C9A8" fill-opacity="0.2"/>
<path fill-rule="evenodd" clip-rule="evenodd" d="M791.921 1358.17L802.484 1386.31L829.597 1414.1L833.118 1447.87L844.386 1469.32L853.893 1471.08L856.71 1464.05L880.301 1462.99L884.527 1456.31L894.386 1461.59L895.794 1472.14L904.245 1477.06L922.907 1463.7L925.372 1437.31L950.724 1430.28L951.78 1392.64L975.372 1391.58L988.048 1381.38L1012.7 1396.86L1032.06 1369.42L1055.65 1386.31L1071.15 1379.62L1077.84 1371.53L1064.81 1354.65L1037.7 1326.86L1021.85 1320.18L1016.92 1305.75L1000.02 1305.05L992.625 1309.98L935.583 1309.62L921.498 1317.36L913.048 1309.62L895.442 1311.03L888.048 1321.94L875.724 1324.4L842.977 1344.1L814.104 1344.8L791.921 1358.17Z" fill="#D3C9A8" fill-opacity="0.2"/>
<path fill-rule="evenodd" clip-rule="evenodd" d="M1011.64 1400.03L988.048 1385.25L976.428 1394.75L954.949 1395.45L953.893 1430.28L996.85 1444.35L1003.19 1478.82L1001.08 1496.06L1012.34 1491.49L1048.26 1486.56L1073.96 1494.65L1082.06 1508.37L1095.09 1496.41L1094.03 1468.62L1088.4 1454.9L1071.15 1435.91L1027.13 1428.17L1015.86 1419.37L1011.64 1400.03Z" fill="#D3C9A8" fill-opacity="0.2"/>
<path fill-rule="evenodd" clip-rule="evenodd" d="M1095.09 1500.63L1081.36 1512.94L1072.2 1497.47L1047.91 1489.73L1013.4 1494.65L999.667 1499.93L976.78 1505.91L966.569 1511.54L964.104 1529.48L940.513 1532.64L925.02 1537.22L927.484 1543.55L947.203 1544.25L963.048 1567.12L991.921 1568.87L993.681 1587.17L987.696 1593.85L1000.72 1609.33L1016.22 1631.84L1022.2 1630.79L1032.06 1624.1L1041.92 1632.54L1060.23 1659.63L1059.17 1664.55L1073.96 1680.74L1069.39 1700.08L1077.84 1719.43H1081.71L1094.39 1690.94L1108.12 1691.64L1123.26 1701.14L1127.13 1696.21L1124.32 1679.33L1113.05 1667.72L1115.51 1648.37L1145.79 1651.89L1168.68 1644.5L1171.85 1625.51L1163.05 1624.1L1156.36 1616.36L1169.74 1606.51L1170.44 1602.29L1158.82 1600.89L1156.71 1592.44L1163.4 1580.83L1159.17 1577.67L1137.7 1589.28L1112.7 1584.35L1101.78 1566.76L1095.44 1546.36L1095.09 1500.63Z" fill="#D3C9A8" fill-opacity="0.2"/>
<path fill-rule="evenodd" clip-rule="evenodd" d="M1101.78 1556.21L1104.6 1565.71L1114.46 1581.54L1137.7 1586.11L1159.53 1574.15L1167.27 1580.13L1160.23 1592.79L1161.29 1598.07L1173.96 1599.48L1172.2 1608.62L1160.94 1616.71L1164.81 1621.29L1173.61 1622.69H1188.05L1202.84 1609.33L1203.19 1574.5L1218.33 1575.21L1232.41 1560.08L1240.86 1537.57L1254.95 1522.44L1270.44 1482.34L1262.34 1476.36L1253.19 1465.46L1240.16 1467.92L1223.26 1452.09L1197.91 1451.39L1196.15 1472.84L1176.78 1489.02L1161.64 1481.99L1150.37 1480.93L1138.75 1523.14L1113.4 1527.01L1101.78 1556.21Z" fill="#D3C9A8" fill-opacity="0.2"/>
<path fill-rule="evenodd" clip-rule="evenodd" d="M1204.95 1611.79L1189.46 1625.86H1175.02L1171.5 1646.97L1146.15 1655.06L1118.33 1651.89L1116.22 1666.67L1127.13 1677.57L1130.3 1696.92L1124.32 1705.36L1106.71 1694.45L1096.5 1694.1L1083.82 1722.24H1078.54V1766.21L1088.4 1779.93L1087.34 1814.41L1095.79 1823.55L1094.74 1841.49L1085.94 1844.66L1088.4 1865.41L1095.44 1860.84L1117.27 1859.78L1115.51 1885.82L1102.48 1889.68L1102.13 1896.72L1111.99 1907.27L1097.56 1922.4L1103.89 1935.06L1137.7 1942.8L1156.36 1961.44L1174.67 1963.2L1182.77 1943.86L1198.96 1939.64L1201.43 1925.56L1203.54 1909.74L1224.32 1904.81L1226.78 1888.63L1243.68 1859.78L1272.56 1843.6L1287.34 1850.99H1294.03L1299.32 1832.35L1314.1 1827.77L1321.85 1821.79L1310.94 1810.54L1304.6 1813.35L1294.03 1818.98L1248.61 1804.21L1237.7 1795.41L1225.72 1768.33L1231.36 1751.44L1253.19 1738.43L1266.22 1739.48L1276.08 1752.5L1276.78 1773.25L1285.23 1779.93L1296.5 1775.01L1307.41 1776.06L1314.81 1780.99L1330.65 1796.47L1338.05 1792.25L1343.33 1782.04L1333.12 1768.33L1331.71 1757.77L1341.92 1738.43L1344.03 1723.3L1335.58 1721.89L1306.71 1708.88L1294.03 1699.03L1289.46 1684.61L1276.43 1688.12L1270.44 1679.68L1268.33 1666.31L1266.57 1658.57L1252.13 1655.41L1250.72 1637.12L1218.33 1635.71V1611.09L1204.95 1611.79Z" fill="#D3C9A8" fill-opacity="0.2"/>
<path fill-rule="evenodd" clip-rule="evenodd" d="M1300.02 1347.26L1278.89 1356.76L1219.74 1333.89L1198.96 1357.46L1187.7 1348.32V1312.79L1182.41 1300.13L1230.3 1247.01L1228.19 1224.5L1214.46 1207.96L1196.15 1210.78L1169.03 1228.72L1144.74 1227.66L1141.57 1235.75L1159.53 1252.64L1127.48 1286.41L1126.43 1320.18L1074.32 1319.12L1054.24 1339.52L1067.27 1352.54L1082.06 1371.53L1072.91 1382.09L1055.3 1390.18L1032.77 1374L1014.81 1399.32L1018.68 1417.61L1028.19 1425.35L1072.91 1433.09L1091.22 1453.49L1097.2 1467.92L1097.91 1497.11L1098.61 1546.01L1100.37 1551.64L1110.93 1524.2L1136.29 1520.33L1147.91 1477.77L1162.34 1478.82L1176.43 1485.51L1192.98 1471.44L1194.39 1459.83L1195.09 1448.22L1224.67 1449.27L1240.86 1464.75L1254.24 1462.29L1264.46 1473.9L1272.2 1479.88L1284.88 1465.45L1294.74 1451.74L1283.12 1441.18V1423.24L1327.13 1404.6L1325.72 1381.38L1300.02 1347.26Z" fill="#D3C9A8" fill-opacity="0.2"/>
<path fill-rule="evenodd" clip-rule="evenodd" d="M682.766 857.956L675.371 863.936L670.794 875.896L671.498 916.349L641.568 926.199L639.456 940.973L628.892 941.676L626.076 951.877L621.498 956.45L631.357 966.3L650.019 979.667L686.287 989.165L698.963 1000.07L733.822 1003.24L736.287 989.868L744.385 983.536L762.343 995.848L765.864 1011.33L785.231 1026.8L802.484 1025.75L829.245 1049.67L830.301 1037.71L825.724 1022.93L813.047 1009.22L825.019 990.572L822.907 971.576L812.343 950.822L815.16 936.048L804.245 934.641L801.78 924.088L783.118 923.736L777.132 912.48L782.062 903.334L781.005 892.077L767.273 887.504L762.695 893.836L751.78 892.429L741.921 883.635L725.723 885.746L716.569 869.564L706.709 864.991L688.047 874.489L682.766 857.956Z" fill="#D3C9A8" fill-opacity="0.2"/>
<path fill-rule="evenodd" clip-rule="evenodd" d="M863.4 1083.79L897.555 1105.6L911.639 1104.9L928.541 1125.65L920.794 1154.85L941.217 1174.19L996.851 1177.01L1034.53 1199.87L1058.47 1244.19L1097.2 1266.71L1124.67 1260.02L1136.64 1271.98L1154.95 1252.99L1137.7 1236.81L1142.63 1224.5L1168.33 1225.55L1194.03 1208.67V1190.73L1175.02 1181.23L1181.01 1165.05L1164.46 1159.42L1152.13 1165.05L1138.75 1130.22L1105.65 1129.17L1084.88 1105.25L1065.16 1092.94L1046.5 1075L991.217 1012.38L995.442 980.371L1015.86 956.802L1001.43 952.229V929.716L984.879 930.068L973.259 940.973L948.963 939.918L937.696 928.309L927.484 927.958L911.991 932.882L887.343 951.526L870.794 986.351L842.625 984.24L827.836 992.331L816.921 1008.86L828.541 1021.53L833.47 1037.36L832.062 1051.08H859.879L863.4 1083.79Z" fill="#D3C9A8" fill-opacity="0.2"/>
<path fill-rule="evenodd" clip-rule="evenodd" d="M678.189 781.271L661.992 783.03L635.935 803.081L620.794 824.187L591.569 822.428L573.963 851.625L553.189 854.087L552.132 876.6L521.146 896.651L522.907 925.847L535.583 942.028L521.146 959.265L524.668 973.687L544.738 978.612L548.963 999.718L542.625 1010.97L557.766 1007.46L565.161 1011.33L590.865 1006.4L601.076 990.924L606.71 966.652L623.259 950.119L626.428 938.863L636.992 937.807L638.752 923.737L668.33 914.239L667.625 875.545L672.555 862.178L682.414 854.439L691.569 825.594L679.245 805.895L678.189 781.271Z" fill="#D3C9A8" fill-opacity="0.2"/>
<path fill-rule="evenodd" clip-rule="evenodd" d="M1205.3 635.992L1212.34 593.429L1222.55 607.499L1218.33 637.751L1230.65 664.485L1234.17 708.808L1251.78 735.542L1256.01 762.98L1321.15 802.377L1361.29 794.639L1391.57 753.834L1399.67 710.215L1386.29 658.505L1388.05 583.228L1379.6 555.79L1358.82 522.372L1355.3 496.341L1364.81 490.361L1377.13 507.95L1389.81 499.859L1378.19 476.994L1333.82 447.094L1270.09 441.114L1257.41 450.26L1225.72 468.904L1226.78 493.879L1204.95 529.056L1162.34 529.759L1147.91 547.699L1179.6 589.911L1174.67 615.238L1200.72 628.253L1205.3 635.992Z" fill="#D3C9A8" fill-opacity="0.2"/>
<path fill-rule="evenodd" clip-rule="evenodd" d="M1479.6 979.315L1448.96 1019.42L1460.23 1036.65L1452.84 1050.37L1458.12 1072.53L1436.64 1085.2L1410.23 1068.31L1384.88 1069.37L1380.3 1050.02L1319.03 1002.88L1312.34 1013.08L1329.6 1041.58L1324.32 1066.55L1309.17 1081.33L1316.22 1093.29L1317.27 1107.36L1291.57 1108.41L1272.55 1133.39L1271.85 1148.51L1294.39 1158.01L1304.24 1146.05L1327.84 1138.31L1342.27 1167.51L1291.22 1207.96L1290.16 1230.83L1271.5 1245.25L1248.61 1236.1L1232.77 1248.77L1186.29 1300.83L1190.86 1312.09V1346.91L1198.61 1352.89L1218.68 1330.38L1278.54 1353.59L1299.32 1344.1L1311.29 1314.55L1352.13 1318.42L1381.36 1351.48L1413.4 1368.02L1457.77 1372.94L1476.43 1362.74L1525.37 1402.84L1554.95 1406.71L1608.47 1314.9L1648.61 1279.37L1654.95 1256.86L1696.15 1219.92L1705.3 1234.35L1727.48 1233.29L1754.24 1209.72L1794.74 1209.02L1824.67 1184.75L1882.41 1181.93L1897.91 1164.34L1921.15 1156.61L1934.53 1135.5L1925.37 1105.95L1936.29 1086.6L1925.37 1084.84L1917.62 1096.1H1903.19L1884.88 1112.99L1863.05 1108.06L1846.5 1127.06L1797.55 1130.93L1589.81 982.833L1569.74 989.165L1479.6 979.315Z" fill="#D3C9A8" fill-opacity="0.2"/>
<path fill-rule="evenodd" clip-rule="evenodd" d="M1957.77 1026.45L1941.92 996.903L1900.02 951.877H1868.33L1864.1 970.169L1863.4 997.959L1840.87 1011.33L1828.19 1008.86L1819.74 1021.18L1803.89 1008.86L1822.2 991.979V973.687L1763.05 972.632L1733.82 951.174L1688.4 955.395L1672.56 933.586L1699.32 931.123L1713.4 903.334L1677.48 895.243L1660.94 915.294L1652.48 900.168L1560.58 877.655L1548.61 889.263L1535.23 876.6L1486.99 905.093L1461.64 880.821L1469.39 859.011L1461.64 837.554L1491.92 827.352L1519.39 846.7L1532.77 824.89L1532.06 785.492L1495.09 745.391L1484.17 784.789L1434.17 817.503L1429.95 842.478L1406.01 863.936L1415.51 914.239L1441.57 953.636L1466.57 956.802L1479.95 976.501L1569.39 985.999L1590.51 979.315L1798.61 1127.76L1845.09 1123.89L1861.99 1104.54L1884.17 1109.82L1902.13 1092.94H1915.87L1923.96 1081.33L1938.05 1083.79L1948.61 1064.79L1936.64 1044.04L1957.77 1026.45Z" fill="#D3C9A8" fill-opacity="0.2"/>
<path fill-rule="evenodd" clip-rule="evenodd" d="M1403.19 866.399L1378.19 889.263L1366.22 867.454L1383.12 864.288L1361.99 824.89L1330.3 829.815L1298.61 818.91L1259.17 824.89L1237.34 879.062L1221.5 869.916L1198.96 817.503L1202.48 776.347L1165.51 780.568L1155.65 815.744L1171.5 834.74L1156.36 854.79L1132.06 841.423L1127.84 813.282L1127.13 813.634L1114.46 827.704L1103.19 825.242L1089.1 821.724L1087.34 832.981L1064.46 855.494L1059.53 873.082L1073.26 896.299L1048.96 921.626L1043.68 946.249H1029.6L998.259 981.778L994.386 1011.33L1048.61 1072.88L1067.27 1090.47L1086.99 1102.79L1107.41 1126.35L1140.86 1127.41L1153.89 1160.83L1164.46 1155.9L1185.23 1162.94L1178.89 1179.82L1197.2 1188.97V1207.61L1215.86 1204.8L1231.36 1223.44L1233.12 1244.55L1247.91 1232.59L1270.79 1241.73L1286.99 1229.42L1288.05 1206.56L1338.4 1166.45L1326.08 1142.18L1306.01 1148.87L1295.44 1161.53L1268.33 1150.63L1269.39 1132.33L1289.81 1105.6L1313.75 1104.54L1313.05 1093.99L1305.3 1080.98L1321.5 1064.79L1326.43 1042.28L1308.47 1013.08L1318.33 998.311L1383.12 1048.26L1387.34 1066.2L1411.29 1065.15L1436.64 1081.33L1454.6 1071.13L1449.32 1050.02L1456.71 1037L1445.09 1019.06L1477.13 977.908L1464.81 959.617L1439.81 956.451L1412.34 915.294L1403.19 866.399Z" fill="#D3C9A8" fill-opacity="0.2"/>
<path fill-rule="evenodd" clip-rule="evenodd" d="M454.597 1564.65L454.245 1573.1L428.541 1572.04L418.329 1587.17L404.949 1588.92L389.104 1617.42L362.344 1627.27L342.977 1598.77L297.907 1593.15L277.132 1614.6L322.203 1641.34L308.822 1650.84L285.231 1636.41L271.851 1646.97L279.949 1662.8H297.203L317.977 1688.47L302.837 1717.67L322.555 1741.94L317.625 1751.79L316.569 1770.79L327.837 1784.51L339.104 1771.84L357.414 1778.53L364.456 1766.92L380.653 1773.6V1795.76L397.907 1803.85V1825.31L406.358 1839.38L426.78 1837.27L433.822 1824.26H467.625L487.696 1802.09L486.639 1791.19L466.921 1788.73L465.865 1771.84L448.259 1747.22L457.414 1713.45L445.442 1695.16L472.203 1680.03L481.71 1689.53L498.963 1688.47L508.822 1668.78L504.949 1634.65L531.71 1617.07L527.484 1576.61L507.062 1575.56L491.569 1586.11L474.668 1575.21L454.597 1564.65Z" fill="#D3C9A8" fill-opacity="0.2"/>
<path fill-rule="evenodd" clip-rule="evenodd" d="M629.244 1812.3L657.765 1802.8L661.991 1780.99L686.287 1767.62L711.991 1760.94L721.498 1758.12L720.442 1722.6L703.892 1719.43L695.794 1706.77L695.089 1686.01L684.526 1690.59L670.794 1689.53L672.202 1671.59L684.526 1657.52V1638.17L657.061 1611.44L641.216 1608.27L628.892 1592.44L627.132 1572.04L603.54 1563.6L593.681 1543.55L580.653 1547.42L556.357 1544.25L553.54 1561.84L530.653 1575.91L535.23 1618.83L508.47 1636.06L511.991 1669.48L500.723 1691.29L480.653 1692.7L471.498 1683.9L449.667 1696.21L460.935 1712.75L451.428 1746.52L467.977 1769.73L509.174 1774.31L513.751 1761.29L530.301 1762.7L534.878 1784.86L550.723 1786.97L565.16 1777.82L616.216 1788.38L629.244 1812.3Z" fill="#D3C9A8" fill-opacity="0.2"/>
<path fill-rule="evenodd" clip-rule="evenodd" d="M507.414 2002.95L533.823 2012.45L604.245 2011.04L598.259 1983.25L615.865 1980.09L629.245 1904.81L617.625 1888.98L600.02 1884.76L602.485 1870.69L624.316 1850.29L604.949 1823.55L626.428 1813.35L614.104 1791.19L565.865 1780.99L552.837 1789.43L561.992 1813L552.485 1856.97L564.104 1877.72L552.485 1911.85L557.414 1934.36L534.879 1931.9L522.907 1937.17L514.808 1924.86L508.118 1932.95L519.386 1959.69L503.893 1972.35L490.513 1979.38L507.414 2002.95Z" fill="#D3C9A8" fill-opacity="0.2"/>
<path fill-rule="evenodd" clip-rule="evenodd" d="M452.484 2013.86L478.541 2014.21L503.541 2002.95L485.935 1978.33L502.132 1969.89L515.513 1958.63L504.597 1932.25L515.161 1919.58L523.963 1933.3L534.527 1928.73L553.541 1930.84L549.315 1911.49L560.935 1878.08L549.315 1857.32L558.47 1813L549.668 1790.13L532.062 1787.67L527.485 1765.86L515.865 1764.81L511.287 1777.47L469.034 1772.9L469.738 1785.91L489.456 1788.38L490.865 1803.15L469.034 1827.42H435.583L428.541 1840.09L404.949 1842.55L394.738 1826.37V1805.96L377.484 1797.87V1775.71L365.513 1770.79L358.822 1782.4L339.808 1775.36L329.949 1786.97L341.217 1800.69L353.893 1798.58L362.344 1810.54L378.893 1815.11L386.287 1834.46L402.484 1862.25L397.907 1890.39L415.161 1921.34L421.146 1946.32L420.09 1971.29L446.499 1998.03L452.484 2013.86Z" fill="#D3C9A8" fill-opacity="0.2"/>
<path fill-rule="evenodd" clip-rule="evenodd" d="M290.864 2100.74L282.062 2109.54L283.822 2134.51L307.062 2167.93L305.301 2203.11L301.076 2219.99L322.202 2245.67L332.062 2241.8L338.047 2231.6L350.723 2238.28L364.104 2242.51L379.949 2232.3V2187.98L390.864 2125.37L431.005 2087.02L434.174 2046.92L429.949 2029.34L449.667 2014.56L443.681 1999.79L418.329 1974.11L408.47 1981.85L380.653 1980.79L365.864 1992.4L371.498 2004.01L357.414 2012.8L373.963 2036.72L392.977 2040.24L399.315 2064.86L383.822 2071.2L369.385 2070.14L350.371 2106.72L334.878 2093.71L326.076 2103.56L290.864 2100.74Z" fill="#D3C9A8" fill-opacity="0.2"/>
<path fill-rule="evenodd" clip-rule="evenodd" d="M283.47 2069.44L289.456 2085.27L291.92 2097.58L324.667 2100.39L334.526 2089.49L349.315 2102.15L367.625 2066.97L383.47 2068.03L395.794 2062.75L390.512 2043.05L372.202 2039.54L347.906 2005.06L329.244 2004.01L320.442 2007.88L330.653 2047.28L283.47 2069.44Z" fill="#D3C9A8" fill-opacity="0.2"/>
<path fill-rule="evenodd" clip-rule="evenodd" d="M272.555 2053.26L272.907 2060.29L281.71 2066.97L327.132 2045.52L317.273 2008.93L309.174 2012.8L301.428 2038.13L288.752 2047.98L272.555 2053.26Z" fill="#D3C9A8" fill-opacity="0.2"/>
<path fill-rule="evenodd" clip-rule="evenodd" d="M237.344 2000.49L238.4 2029.34L271.851 2045.16L272.203 2050.09L287.696 2044.81L298.611 2036.02L306.71 2010.34L326.076 2001.9L311.287 1989.94L305.301 2000.49L266.217 1990.99L237.344 2000.49Z" fill="#D3C9A8" fill-opacity="0.2"/>
<path fill-rule="evenodd" clip-rule="evenodd" d="M212.695 1943.15L230.301 1962.5L231.005 1989.23L236.287 1997.32L266.569 1987.83L303.892 1996.97L315.512 1976.57L310.23 1959.69H292.273L257.414 1928.38L233.118 1927.32L212.695 1943.15Z" fill="#D3C9A8" fill-opacity="0.2"/>
<path fill-rule="evenodd" clip-rule="evenodd" d="M169.386 1862.95L189.808 1897.42V1918.18L210.583 1940.69L232.062 1924.16L256.358 1925.21L255.301 1899.18L268.682 1890.39L250.724 1855.91L244.034 1869.28L220.09 1866.82L207.414 1849.58L169.386 1862.95Z" fill="#D3C9A8" fill-opacity="0.2"/>
<path fill-rule="evenodd" clip-rule="evenodd" d="M130.653 1643.1L132.414 1672.29L123.259 1683.2L127.484 1695.86L140.864 1706.06L140.16 1726.82L147.555 1760.23L145.09 1791.19L139.104 1842.2L145.794 1851.34L159.174 1845.36L167.977 1860.14L208.822 1846.07L221.85 1864.01L242.273 1866.12L257.062 1836.92L257.414 1836.22L258.118 1835.86L273.611 1829.53L267.625 1820.74L267.273 1820.03L267.625 1819.33L276.428 1803.15L265.512 1793.65L277.836 1781.34L278.893 1770.44L293.681 1763.4L302.836 1779.58L313.752 1770.79L314.808 1751.09L319.033 1742.65L299.315 1718.37L314.456 1689.18L295.794 1666.31H278.188L267.625 1645.56L236.991 1617.77L232.766 1657.52L215.864 1649.08L184.174 1650.84L172.555 1665.96L148.963 1626.56L130.653 1643.1ZM160.935 1804.56L184.174 1802.45V1788.73L208.47 1771.14L192.977 1761.99L173.611 1738.42L176.78 1716.26L196.498 1723.65L210.935 1745.81H231.709L232.766 1766.92L247.202 1778.53L246.146 1806.32L221.85 1837.62L218.681 1808.78L188.048 1842.2L162.343 1830.24L160.935 1804.56Z" fill="#D3C9A8" fill-opacity="0.2"/>
<path fill-rule="evenodd" clip-rule="evenodd" d="M314.808 1773.25L301.78 1784.15L292.273 1767.27L281.709 1772.19L280.301 1782.4L269.737 1793.3L279.949 1802.09L270.442 1820.03L277.836 1831.29L259.174 1838.68L252.132 1852.4L272.906 1891.44L258.47 1900.94L259.526 1925.92L293.681 1956.52H312.695L319.033 1976.92L313.047 1987.47L329.597 2000.84L349.667 2001.9L355.653 2010.34L367.625 2002.95L361.991 1991.34L379.597 1977.63L407.413 1978.68L416.92 1971.29L417.977 1946.67L412.343 1922.75L394.737 1891.09L399.315 1863.3L383.118 1835.51L376.428 1817.92L360.582 1813.35L352.836 1802.09L339.808 1804.21L314.808 1773.25Z" fill="#D3C9A8" fill-opacity="0.2"/>
<path fill-rule="evenodd" clip-rule="evenodd" d="M164.104 1807.37L165.16 1827.07L187.343 1837.27L221.765 1800.42L224.315 1828.13L242.977 1803.85L244.033 1778.17L230.301 1766.57L228.892 1746.87H209.174L195.442 1724.71L178.892 1719.08L176.78 1736.31L195.442 1758.48L213.751 1770.08L187.343 1789.78V1804.91L164.104 1807.37Z" fill="#D3C9A8" fill-opacity="0.2"/>
<path fill-rule="evenodd" clip-rule="evenodd" d="M1701.43 1983.25L1713.4 1986.77L1714.46 2008.58L1706.71 2016.67L1711.99 2031.8L1695.09 2051.14L1698.61 2065.22L1734.53 2073.66L1736.29 2093L1753.89 2093.71L1767.27 2096.87L1780.65 2112L1761.29 2127.83V2141.2L1780.65 2135.57L1797.2 2144.71L1812.34 2141.2L1824.67 2130.29L1860.94 2123.96L1875.02 2090.19L1872.55 2029.34L1885.23 2006.82L1906.71 1997.68L1931.01 1999.43L1925.37 1976.92L1946.5 1964.61V1879.83L1931.01 1863.65L1947.2 1843.95L1945.79 1832.35L1917.27 1852.05L1894.39 1851.34L1872.91 1839.03L1849.32 1842.55L1818.68 1820.74L1802.48 1817.92L1813.75 1802.09L1799.32 1787.67L1771.15 1814.76L1768.33 1840.79L1759.88 1850.99L1762.34 1859.08L1780.3 1865.76L1786.99 1883.35L1783.12 1899.89L1776.43 1910.44L1754.6 1906.22L1738.75 1923.45L1734.53 1943.5L1706.36 1969.89L1701.43 1983.25Z" fill="#D3C9A8" fill-opacity="0.2"/>
<path fill-rule="evenodd" clip-rule="evenodd" d="M3165.51 2537.64L3179.6 2538.34L3193.68 2565.07L3303.19 2574.92L3376.78 2530.6L3400.37 2529.9L3407.77 2505.63L3443.68 2472.21L3494.03 2469.75L3509.17 2483.82L3529.95 2464.47L3618.68 2478.54L3631.36 2444.42L3661.64 2423.66L3648.96 2392.71L3662.34 2308.99L3684.88 2286.48L3669.74 2246.37L3638.05 2242.86L3660.58 2201L3700.37 2173.21L3663.75 2117.98L3676.78 2100.04L3654.6 2087.38L3651.43 2044.81L3629.24 2050.09L3615.16 2025.11L3585.94 2041.65L3566.57 2022.3L3577.48 2007.17L3542.27 1983.61L3497.55 1900.94L3461.64 1902L3448.61 1912.2L3450.72 1950.19L3477.13 1968.83L3476.08 2002.95L3449.67 2021.24L3407.06 2014.91L3395.09 2031.8L3407.77 2043.41L3428.19 2105.32L3452.84 2109.54L3476.43 2131L3478.54 2163.36L3440.86 2176.72L3426.78 2209.44L3385.23 2241.1V2262.56L3404.95 2275.57L3402.84 2302.3L3383.47 2326.22L3359.53 2336.07L3350.72 2350.5L3322.2 2352.61L3277.84 2411L3253.19 2407.83L3227.13 2429.64H3185.94L3194.39 2454.97L3171.85 2473.26L3196.15 2499.65L3171.85 2512.31L3165.51 2537.64ZM3363.05 2418.39L3408.47 2413.11L3422.91 2383.91L3435.58 2395.87L3446.5 2370.2L3471.15 2365.97L3500.37 2384.62L3495.79 2406.43L3480.65 2410.3L3506.01 2433.16L3409.17 2479.95L3352.84 2445.12L3363.05 2418.39Z" fill="#D3C9A8" fill-opacity="0.2"/>
<path d="M3365.16 2423.62L3357.41 2443.32L3410.23 2476.04L3501.08 2432.06L3474.67 2408.14L3493.33 2403.57L3496.85 2386.34L3470.44 2369.8L3448.61 2374.02L3436.29 2402.52L3423.26 2390.56L3410.23 2417.99L3365.16 2423.62Z" fill="#D3C9A8" fill-opacity="0.2"/>
<path d="M5000.02 1527.01L4993.33 1443.29L4984.17 1404.95L4956.36 1377.51L4959.17 1336.36L4973.26 1324.75L4925.72 1269.52L4926.43 1231.18L4946.5 1209.37L4941.57 1187.56L4901.43 1175.95L4860.23 1103.14L4870.44 1096.45L4882.77 1114.04L4902.84 1101.38L4871.85 1072.18L4855.3 1081.33L4828.54 1064.09L4828.19 1064.79L4814.46 1032.08H4786.64L4783.47 1051.43L4765.86 1049.67L4708.82 936.048L4712.34 900.168L4734.88 895.243L4717.98 828.056L4753.89 856.549L4754.95 776.347L4783.47 747.15L4826.08 746.446L4801.78 686.998L4790.16 558.956L4761.99 567.75L4740.86 556.493L4704.95 659.56L4658.47 658.505L4615.51 671.52L4601.43 632.826L4545.09 636.344L4534.53 654.636L4495.09 663.782L4488.05 684.888L4465.86 687.35L4459.17 711.622L4433.82 719.712L4438.4 743.632L4473.26 794.287L4495.79 799.211L4510.94 838.609L4536.29 836.498L4553.54 852.328L4558.47 876.951L4581.01 889.615L4596.85 874.841L4554.25 824.187L4564.1 790.417L4605.3 776.347L4583.47 809.061L4588.4 834.036L4621.15 856.549L4635.93 857.604L4635.23 880.821L4649.32 884.339L4635.93 951.174L4651.08 976.149L4656.01 1053.89L4667.98 1104.19L4683.82 1154.14L4665.51 1174.19L4671.15 1193.54L4661.29 1206.91L4686.99 1236.81L4691.22 1284.65L4726.78 1324.75L4769.03 1372.24L5000.02 1527.01Z" fill="#D3C9A8" fill-opacity="0.2"/>
<path d="M117.625 1617.77L135.583 1596.66L95.09 1543.55L119.034 1475.66L101.78 1461.23L86.9914 1471.79L27.8364 1431.33L20.09 1443.29L22.5547 1491.13L0.0195312 1515.05L6.00545 1548.12L45.09 1546.01L88.3998 1600.53L117.625 1617.77Z" fill="#D3C9A8" fill-opacity="0.2"/>
</svg>
